<svg width="36" height="36" viewBox="0 0 36 36" fill="none" xmlns="http://www.w3.org/2000/svg">
<g clip-path="url(#clip0_507_100)">
<path d="M0 8C0 3.58172 3.58172 0 8 0H28C32.4183 0 36 3.58172 36 8V28C36 32.4183 32.4183 36 28 36H8C3.58172 36 0 32.4183 0 28V8Z" fill="url(#paint0_linear_507_100)"/>
<path d="M6.00722 21.4088C6.04093 20.2356 5.94502 18.8104 6.05337 17.3885C6.33848 13.6463 9.34477 10.4851 12.9759 10.0704C13.7481 9.98223 14.518 10.0071 15.2893 10.0001C15.8382 9.99502 16.2074 10.2697 16.4673 10.7719C18.709 15.1072 20.9611 19.4365 23.2099 23.7674C23.4429 24.2165 23.6898 24.6588 23.9055 25.1166C24.1425 25.6188 23.9215 25.9864 23.3804 25.9885C21.4851 25.9959 19.5898 25.9861 17.6945 25.9982C17.4395 25.9999 17.3364 25.8992 17.2618 25.67C16.9993 24.8618 16.7128 24.062 16.4506 23.2534C15.9285 21.6451 14.1992 21.1223 13.0375 22.2284C12.8421 22.4146 12.697 22.631 12.6067 22.8939C12.2964 23.7967 11.9599 24.6905 11.6676 25.5993C11.5658 25.9157 11.4126 26.0016 11.1042 25.9989C9.54444 25.9841 7.98435 25.9827 6.42457 25.9999C6.09789 26.0036 5.99674 25.907 6.00067 25.5721C6.01605 24.2677 6.00722 22.9633 6.00722 21.4088Z" fill="white"/>
<path d="M29.9913 20.4344C29.9913 22.1258 29.9799 23.8172 29.9999 25.5083C30.0044 25.8923 29.8679 25.9652 29.4995 25.9904C28.721 26.0438 28.2182 25.8906 27.8057 25.1047C26.0533 21.7666 24.2014 18.4782 22.3845 15.1721C21.646 13.8281 20.9099 12.4828 20.1628 11.1435C19.7965 10.4869 20.0611 10.0051 20.8283 10.0176C22.1926 10.0394 23.5607 9.9218 24.9213 10.1032C27.5765 10.4577 30.0468 12.9011 29.9916 15.8995C29.9637 17.4108 29.9868 18.9228 29.9868 20.4344C29.9878 20.4344 29.9896 20.4344 29.9913 20.4344Z" fill="white"/>
</g>
<defs>
<linearGradient id="paint0_linear_507_100" x1="-2" y1="40" x2="39.5" y2="-4.5" gradientUnits="userSpaceOnUse">
<stop stop-color="#796532"/>
<stop offset="0.0265" stop-color="#7E6A38"/>
<stop offset="0.1295" stop-color="#8E7B4C"/>
<stop offset="0.2373" stop-color="#99885C"/>
<stop offset="0.3521" stop-color="#A09066"/>
<stop offset="0.486" stop-color="#A39369"/>
<stop offset="0.6157" stop-color="#A09065"/>
<stop offset="0.7435" stop-color="#98875A"/>
<stop offset="0.8706" stop-color="#8B7848"/>
<stop offset="0.9966" stop-color="#7A6633"/>
<stop offset="1" stop-color="#796532"/>
</linearGradient>
<clipPath id="clip0_507_100">
<path d="M0 8C0 3.58172 3.58172 0 8 0H28C32.4183 0 36 3.58172 36 8V28C36 32.4183 32.4183 36 28 36H8C3.58172 36 0 32.4183 0 28V8Z" fill="white"/>
</clipPath>
</defs>
</svg>
