<svg width="80" height="36" viewBox="0 0 80 36" fill="none" xmlns="http://www.w3.org/2000/svg">
<path d="M19 5.96432C19 6.10368 18.8838 6.21492 18.7445 6.2088L14.2452 6.01121C14.1059 6.0051 13.9897 6.11633 13.9897 6.2557V18.7553C13.9897 18.8904 13.8801 19 13.745 19H11.2447C11.1096 19 11 18.8904 11 18.7553V6.25572C11 6.11634 10.8838 6.00511 10.7445 6.01124L6.25548 6.20878C6.11624 6.2149 6 6.10367 6 5.96429L6 3.24472C6 3.10957 6.10956 3 6.24472 3L18.7553 3C18.8904 3 19 3.10956 19 3.24472V5.96432Z" fill="url(#paint0_linear_507_88)"/>
<path d="M32.06 18.7553C32.06 18.8904 31.9504 19 31.8153 19H29.6247C29.4896 19 29.38 18.8904 29.38 18.7553V11.78C29.38 10.9667 29.22 10.36 28.9 9.95999C28.5933 9.55999 28.1667 9.35999 27.62 9.35999C27.3 9.35999 26.96 9.45332 26.6 9.63999C26.24 9.82666 25.9133 10.0867 25.62 10.42C25.34 10.74 25.1333 11.1133 25 11.54V18.7553C25 18.8904 24.8904 19 24.7553 19H22.2447C22.1096 19 22 18.8904 22 18.7553V3.24472C22 3.10957 22.1096 3 22.2447 3L24.7553 3C24.8904 3 25 3.10956 25 3.24472V8.2103C25 8.46041 25.3666 8.57127 25.5349 8.3863C25.8333 8.0585 26.1817 7.78307 26.58 7.55999C27.2467 7.18666 27.9733 6.99999 28.76 6.99999C29.44 6.99999 29.9933 7.11999 30.42 7.35999C30.8467 7.58666 31.18 7.89999 31.42 8.29999C31.66 8.68666 31.8267 9.12666 31.92 9.61999C32.0133 10.1 32.06 10.6 32.06 11.12V18.7553Z" fill="url(#paint1_linear_507_88)"/>
<path d="M42 9.49999C41.1867 9.49999 40.27 9.65999 39.63 9.97999C38.99 10.2867 38 11 38 11.5C38 12 38 19 38 19H35V6.99999H38V8.42218C38 8.67847 38.3848 8.78496 38.5449 8.58483C38.8161 8.24578 39.1215 7.95678 39.45 7.71999C40.0233 7.30666 40.63 7.07999 41.27 7.03999C41.4651 7.0278 41.72 7.03999 41.8 7.03999C41.88 7.03999 41.9467 7.04666 42 7.05999V9.49999Z" fill="url(#paint2_linear_507_88)"/>
<path d="M45.2447 19C45.1096 19 45 18.8904 45 18.7553V7.24471C45 7.10956 45.1096 6.99999 45.2447 6.99999H47.7553C47.8904 6.99999 48 7.10956 48 7.24471V18.7553C48 18.8904 47.8904 19 47.7553 19H45.2447ZM45.2447 6C45.1096 6 45 5.89043 45 5.75528V3.24472C45 3.10956 45.1096 3 45.2447 3H47.7553C47.8904 3 48 3.10956 48 3.24472V5.75528C48 5.89043 47.8904 6 47.7553 6H45.2447Z" fill="url(#paint3_linear_507_88)"/>
<path d="M54.1505 19C54.045 19 53.9514 18.9324 53.9182 18.8322L50.1065 7.32164C50.0541 7.16327 50.172 6.99999 50.3388 6.99999H52.8201C52.9271 6.99999 53.0217 7.06956 53.0537 7.17172L55.2664 14.2525C55.338 14.4815 55.662 14.4815 55.7336 14.2525L57.9463 7.17172C57.9783 7.06956 58.0729 6.99999 58.1799 6.99999H60.6605C60.8275 6.99999 60.9455 7.16364 60.8926 7.3221L57.0558 18.8326C57.0225 18.9326 56.929 19 56.8236 19L54.1505 19Z" fill="url(#paint4_linear_507_88)"/>
<path d="M68.2645 19C66.9713 19 65.8544 18.7579 64.9139 18.2736C63.979 17.7843 63.2596 17.0933 62.7558 16.2005C62.2519 15.3026 62 14.2459 62 13.0303C62 11.8348 62.2519 10.7856 62.7558 9.88271C63.2652 8.97477 63.9762 8.26859 64.8887 7.76418C65.8013 7.25472 66.8733 6.99999 68.105 6.99999C68.8999 6.99999 69.6501 7.11601 70.3555 7.34804C71.0665 7.57502 71.6935 7.92811 72.2365 8.40731C72.7852 8.8865 73.2162 9.49684 73.5297 10.2383C73.8432 10.9748 74 11.8524 74 12.8714L73.9996 13.1737C73.9993 13.3242 73.8773 13.446 73.7268 13.446H63.3579L63.4276 11.8651H70.7473C70.8864 11.8651 70.9996 11.7514 70.9938 11.6124C70.9758 11.1895 70.9142 10.8071 70.7082 10.4653C70.4619 10.0517 70.1176 9.72635 69.6753 9.48927C69.2386 9.2522 68.7292 9.13366 68.147 9.13366C67.5255 9.13366 66.9797 9.26985 66.5094 9.54223C66.0392 9.80957 65.6725 10.1627 65.4094 10.6015C65.1519 11.0353 65.0203 11.512 65.0147 12.0315V13.3779C65.0147 14.0538 65.1519 14.8991 65.4262 15.3833C65.7005 15.8625 66.084 16.2307 66.5766 16.488C67.0693 16.7402 67.6459 16.8663 68.3065 16.8663C68.7488 16.8663 69.1491 16.8108 69.5073 16.6999C69.8656 16.5838 70.1763 16.4149 70.4395 16.1929C70.6592 16.0076 70.9028 15.704 70.9772 15.2715C71.0027 15.1231 71.1221 15 71.2727 15H73.7267C73.8772 15 74.0006 15.1223 73.9838 15.2719C73.883 16.165 73.3074 16.9679 72.8495 17.4262C72.3513 17.9256 71.7131 18.314 70.9349 18.5914C70.1568 18.8638 69.2666 19 68.2645 19Z" fill="url(#paint5_linear_507_88)"/>
<path d="M18.6771 27.3583C18.7277 27.5123 18.6114 27.6667 18.4493 27.6667H17.5948C17.4996 27.6667 17.4132 27.6116 17.3712 27.5262C17.2905 27.3622 17.1543 27.0973 17.0562 26.9696C16.9083 26.7769 16.7272 26.6134 16.5129 26.4791C16.2986 26.3447 16.0586 26.2433 15.793 26.1749C15.5304 26.1065 15.2513 26.0722 14.9555 26.0722C14.4212 26.0722 13.9428 26.185 13.5203 26.4106C13.1007 26.6362 12.7687 26.967 12.5242 27.403C12.2828 27.839 12.162 28.3714 12.162 29C12.162 29.6337 12.2828 30.1686 12.5242 30.6046C12.7687 31.0406 13.1022 31.3701 13.5248 31.5932C13.9473 31.8162 14.4227 31.9278 14.9509 31.9278C15.2437 31.9278 15.5214 31.8948 15.784 31.8289C16.0496 31.7605 16.2895 31.6603 16.5038 31.5285C16.7181 31.3967 16.8992 31.2357 17.0471 31.0456C17.148 30.9169 17.2888 30.6423 17.3713 30.4741C17.4132 30.3885 17.4998 30.3333 17.5951 30.3333H18.5274C18.6625 30.3333 18.7745 30.4435 18.7603 30.5779C18.7116 31.0373 18.5206 31.1669 18.3329 31.4449C18.1186 31.7643 17.8425 32.0406 17.5044 32.2738C17.1694 32.5044 16.7861 32.6831 16.3544 32.8099C15.9228 32.9366 15.452 33 14.9419 33C14.139 33 13.4237 32.8403 12.7959 32.5209C12.1681 32.199 11.6731 31.7389 11.3109 31.1407C10.9517 30.5425 10.7721 29.8289 10.7721 29C10.7721 28.1686 10.9532 27.455 11.3154 26.8593C11.6776 26.2611 12.1726 25.8023 12.8004 25.4829C13.4282 25.161 14.142 25 14.9419 25C15.4339 25 15.8926 25.0596 16.3182 25.1787C16.7468 25.2953 17.1316 25.4677 17.4727 25.6958C17.8138 25.9214 18.096 26.1977 18.3194 26.5247C18.4534 26.7194 18.5896 27.0917 18.6771 27.3583Z" fill="url(#paint6_linear_507_88)"/>
<path d="M28.8958 33C28.7607 33 28.6511 32.8904 28.6511 32.7553V25.2447C28.6511 25.1096 28.7607 25 28.8958 25H29.7397C29.8749 25 29.9845 25.1096 29.9845 25.2447V31.4219C29.9845 31.5571 30.094 31.6667 30.2292 31.6667H36.4064C36.5416 31.6667 36.6511 31.7762 36.6511 31.9114V32.7553C36.6511 32.8904 36.5416 33 36.4064 33H28.8958Z" fill="url(#paint7_linear_507_88)"/>
<path d="M52.9933 25.2447C52.9933 25.1096 53.1029 25 53.238 25H54.2856C54.4207 25 54.5303 25.1096 54.5303 25.2447V30.1758C54.5303 30.7265 54.3634 31.2145 54.0295 31.6398C53.6957 32.0624 53.2263 32.3955 52.6214 32.6388C52.0166 32.8796 51.3076 33 50.4945 33C49.6847 33 49.044 32.8796 48.4391 32.6388C47.8342 32.3955 47.3649 32.0624 47.031 31.6398C46.6972 31.2145 46.5303 30.7265 46.5303 30.1758V25.2447C46.5303 25.1096 46.6398 25 46.775 25H47.8176C47.9527 25 48.0623 25.1096 48.0623 25.2447V30.0797C48.0623 30.4358 48.1631 30.7522 48.3647 31.0288C48.5697 31.3055 48.7922 31.5232 49.1657 31.682C49.5392 31.8383 49.9821 31.9164 50.4945 31.9164C51.0101 31.9164 51.4547 31.8383 51.8282 31.682C52.205 31.5232 52.4925 31.3055 52.6909 31.0288C52.8925 30.7522 52.9933 30.4358 52.9933 30.0797V25.2447Z" fill="url(#paint8_linear_507_88)"/>
<path d="M64.654 33C64.5189 33 64.4093 32.8904 64.4093 32.7553V25.2447C64.4093 25.1096 64.5189 25 64.654 25H68.4743C69.2621 25 69.9143 25.0938 70.431 25.2813C70.9477 25.4661 71.3343 25.7174 71.5909 26.0352C71.8474 26.3503 71.9757 26.7057 71.9757 27.1016C71.9757 27.4349 71.8908 27.7161 71.721 27.9453C71.5511 28.1719 71.3235 28.3542 71.038 28.4922C70.7562 28.6276 70.4454 28.7266 70.1058 28.7891V28.8672C70.4743 28.8802 70.8339 28.9661 71.1844 29.125C71.5385 29.2813 71.8312 29.5039 72.0624 29.793C72.2937 30.082 72.4093 30.4336 72.4093 30.8477C72.4093 31.2565 72.2756 31.6237 72.0082 31.9492C71.7444 32.2721 71.3361 32.5286 70.7833 32.7188C70.2304 32.9063 69.524 33 68.664 33H64.654ZM66.0841 31.7201C66.0841 31.8553 66.1937 31.9648 66.3288 31.9648H68.5014C69.3036 31.9648 69.8781 31.8529 70.225 31.6289C70.5719 31.4049 70.7453 31.125 70.7453 30.7891C70.7453 30.5365 70.6568 30.3047 70.4798 30.0938C70.3027 29.8828 70.0498 29.7148 69.721 29.5898C69.3958 29.4648 69.0091 29.4023 68.5611 29.4023H66.3288C66.1937 29.4023 66.0841 29.5119 66.0841 29.6471V31.7201ZM66.0841 28.2162C66.0841 28.3514 66.1937 28.4609 66.3288 28.4609H68.328C68.7038 28.4609 69.0416 28.4089 69.3416 28.3047C69.6451 28.2005 69.8854 28.0547 70.0624 27.8672C70.2431 27.6771 70.3334 27.4531 70.3334 27.1953C70.3334 26.8646 70.1726 26.5872 69.851 26.3633C69.5294 26.1393 69.0362 26.0273 68.3714 26.0273H66.3288C66.1937 26.0273 66.0841 26.1369 66.0841 26.2721V28.2162Z" fill="url(#paint9_linear_507_88)"/>
<defs>
<linearGradient id="paint0_linear_507_88" x1="40.9239" y1="-1.83168" x2="45.2783" y2="30.8886" gradientUnits="userSpaceOnUse">
<stop offset="0.266855" stop-color="#101828"/>
<stop offset="1" stop-color="#101828" stop-opacity="0.4"/>
</linearGradient>
<linearGradient id="paint1_linear_507_88" x1="40.9239" y1="-1.83168" x2="45.2783" y2="30.8886" gradientUnits="userSpaceOnUse">
<stop offset="0.266855" stop-color="#101828"/>
<stop offset="1" stop-color="#101828" stop-opacity="0.4"/>
</linearGradient>
<linearGradient id="paint2_linear_507_88" x1="40.9239" y1="-1.83168" x2="45.2783" y2="30.8886" gradientUnits="userSpaceOnUse">
<stop offset="0.266855" stop-color="#101828"/>
<stop offset="1" stop-color="#101828" stop-opacity="0.4"/>
</linearGradient>
<linearGradient id="paint3_linear_507_88" x1="40.9239" y1="-1.83168" x2="45.2783" y2="30.8886" gradientUnits="userSpaceOnUse">
<stop offset="0.266855" stop-color="#101828"/>
<stop offset="1" stop-color="#101828" stop-opacity="0.4"/>
</linearGradient>
<linearGradient id="paint4_linear_507_88" x1="40.9239" y1="-1.83168" x2="45.2783" y2="30.8886" gradientUnits="userSpaceOnUse">
<stop offset="0.266855" stop-color="#101828"/>
<stop offset="1" stop-color="#101828" stop-opacity="0.4"/>
</linearGradient>
<linearGradient id="paint5_linear_507_88" x1="40.9239" y1="-1.83168" x2="45.2783" y2="30.8886" gradientUnits="userSpaceOnUse">
<stop offset="0.266855" stop-color="#101828"/>
<stop offset="1" stop-color="#101828" stop-opacity="0.4"/>
</linearGradient>
<linearGradient id="paint6_linear_507_88" x1="14.8808" y1="22.5842" x2="22.0154" y2="35.1988" gradientUnits="userSpaceOnUse">
<stop offset="0.266855" stop-color="#101828"/>
<stop offset="1" stop-color="#101828" stop-opacity="0.4"/>
</linearGradient>
<linearGradient id="paint7_linear_507_88" x1="32.7598" y1="22.5842" x2="39.8945" y2="35.1988" gradientUnits="userSpaceOnUse">
<stop offset="0.266855" stop-color="#101828"/>
<stop offset="1" stop-color="#101828" stop-opacity="0.4"/>
</linearGradient>
<linearGradient id="paint8_linear_507_88" x1="50.639" y1="22.5842" x2="57.7736" y2="35.1988" gradientUnits="userSpaceOnUse">
<stop offset="0.266855" stop-color="#101828"/>
<stop offset="1" stop-color="#101828" stop-opacity="0.4"/>
</linearGradient>
<linearGradient id="paint9_linear_507_88" x1="68.518" y1="22.5842" x2="75.6527" y2="35.1988" gradientUnits="userSpaceOnUse">
<stop offset="0.266855" stop-color="#101828"/>
<stop offset="1" stop-color="#101828" stop-opacity="0.4"/>
</linearGradient>
</defs>
</svg>
