<svg width="94" height="36" viewBox="0 0 94 36" fill="none" xmlns="http://www.w3.org/2000/svg">
<path d="M0 12.8C0 8.31958 0 6.07937 0.871948 4.36808C1.63893 2.86278 2.86278 1.63893 4.36808 0.871948C6.07937 0 8.31958 0 12.8 0H81.2C85.6804 0 87.9206 0 89.6319 0.871948C91.1372 1.63893 92.361 2.86278 93.128 4.36808C94 6.07937 94 8.31958 94 12.8V23.2023C94 27.6827 94 29.9229 93.128 31.6342C92.361 33.1395 91.1372 34.3634 89.6319 35.1304C87.9206 36.0023 85.6804 36.0023 81.2 36.0023H12.8C8.31958 36.0023 6.07937 36.0023 4.36808 35.1304C2.86278 34.3634 1.63893 33.1395 0.871948 31.6342C0 29.9229 0 27.6827 0 23.2023V12.8Z" fill="#0D121C"/>
<path d="M10.0072 21.4099C10.0409 20.2368 9.94502 18.8116 10.0534 17.3897C10.3385 13.6475 13.3448 10.4863 16.9759 10.0716C17.7481 9.98339 18.518 10.0083 19.2893 10.0012C19.8382 9.99618 20.2074 10.2709 20.4673 10.7731C22.709 15.1084 24.9611 19.4377 27.2099 23.7686C27.4429 24.2177 27.6898 24.66 27.9055 25.1178C28.1425 25.62 27.9215 25.9876 27.3804 25.9896C25.4851 25.997 23.5898 25.9873 21.6945 25.9994C21.4395 26.0011 21.3364 25.9004 21.2618 25.6712C20.9993 24.863 20.7128 24.0631 20.4506 23.2546C19.9285 21.6462 18.1992 21.1235 17.0375 22.2296C16.8421 22.4157 16.697 22.6322 16.6067 22.8951C16.2964 23.7979 15.9599 24.6916 15.6676 25.6005C15.5658 25.9169 15.4126 26.0027 15.1042 26C13.5444 25.9852 11.9843 25.9839 10.4246 26.0011C10.0979 26.0048 9.99674 25.9082 10.0007 25.5732C10.0161 24.2688 10.0072 22.9644 10.0072 21.4099Z" fill="url(#paint0_linear_507_105)"/>
<path d="M33.9913 20.4356C33.9913 22.127 33.9799 23.8184 33.9999 25.5094C34.0044 25.8935 33.8679 25.9664 33.4995 25.9916C32.721 26.045 32.2182 25.8918 31.8057 25.1059C30.0533 21.7678 28.2014 18.4794 26.3845 15.1732C25.646 13.8292 24.9099 12.4839 24.1628 11.1446C23.7965 10.4881 24.0611 10.0063 24.8283 10.0187C26.1926 10.0406 27.5607 9.92296 28.9213 10.1044C31.5765 10.4589 34.0468 12.9022 33.9916 15.9006C33.9637 17.4119 33.9868 18.9239 33.9868 20.4356C33.9878 20.4356 33.9896 20.4356 33.9913 20.4356Z" fill="url(#paint1_linear_507_105)"/>
<path d="M50.0294 11.8517C50.0294 11.9393 49.9563 12.0093 49.8687 12.0054L47.0955 11.8821C47.0079 11.8782 46.9348 11.9482 46.9348 12.0358V19.8462C46.9348 19.9311 46.8659 20 46.781 20H45.2421C45.1571 20 45.0882 19.9311 45.0882 19.8462V12.0358C45.0882 11.9482 45.0151 11.8783 44.9275 11.8822L42.1607 12.0054C42.0731 12.0093 42 11.9393 42 11.8517L42 10.1538C42 10.0689 42.0689 10 42.1538 10L49.8756 10C49.9605 10 50.0294 10.0689 50.0294 10.1538V11.8517Z" fill="white"/>
<path d="M58.0959 19.8461C58.0959 19.9311 58.027 20 57.942 20H56.5944C56.5095 20 56.4406 19.9311 56.4406 19.8461V15.4875C56.4406 14.9792 56.3418 14.6 56.1441 14.35C55.9547 14.1 55.6912 13.975 55.3535 13.975C55.1559 13.975 54.9459 14.0333 54.7235 14.15C54.5012 14.2667 54.2994 14.4292 54.1182 14.6375C53.9453 14.8375 53.8176 15.0708 53.7353 15.3375V19.8461C53.7353 19.9311 53.6664 20 53.5814 20H52.0362C51.9512 20 51.8824 19.9311 51.8824 19.8461V10.1538C51.8824 10.0689 51.9512 10 52.0362 10L53.5814 10C53.6664 10 53.7353 10.0689 53.7353 10.1538V13.2472C53.7353 13.4049 53.9675 13.4746 54.0734 13.3579C54.256 13.1568 54.4686 12.9875 54.7112 12.85C55.1229 12.6167 55.5718 12.5 56.0576 12.5C56.4776 12.5 56.8194 12.575 57.0829 12.725C57.3465 12.8667 57.5524 13.0625 57.7006 13.3125C57.8488 13.5542 57.9518 13.8292 58.0094 14.1375C58.0671 14.4375 58.0959 14.75 58.0959 15.075V19.8461Z" fill="white"/>
<path d="M64.2353 14.0625C63.7329 14.0625 63.1667 14.1625 62.7714 14.3625C62.3762 14.5542 61.7647 15 61.7647 15.3125C61.7647 15.625 61.7647 20 61.7647 20H59.9118V12.5H61.7647V13.3785C61.7647 13.54 62.0083 13.607 62.109 13.4807C62.2746 13.273 62.4605 13.0957 62.6603 12.95C63.0144 12.6917 63.3891 12.55 63.7844 12.525C63.9049 12.5174 64.0624 12.525 64.1118 12.525C64.1612 12.525 64.2024 12.5292 64.2353 12.5375V14.0625Z" fill="white"/>
<path d="M66.2421 20C66.1571 20 66.0882 19.9311 66.0882 19.8462V12.6538C66.0882 12.5689 66.1571 12.5 66.2421 12.5H67.7873C67.8723 12.5 67.9412 12.5689 67.9412 12.6538V19.8462C67.9412 19.9311 67.8723 20 67.7873 20H66.2421ZM66.2421 11.875C66.1571 11.875 66.0882 11.8061 66.0882 11.7212V10.1538C66.0882 10.0689 66.1571 10 66.2421 10H67.7873C67.8723 10 67.9412 10.0689 67.9412 10.1538V11.7212C67.9412 11.8061 67.8723 11.875 67.7873 11.875H66.2421Z" fill="white"/>
<path d="M71.7424 20C71.6759 20 71.6169 19.9572 71.5962 19.894L69.2425 12.7017C69.2099 12.6022 69.284 12.5 69.3887 12.5H70.9159C70.9834 12.5 71.043 12.544 71.0629 12.6084L72.4265 17.024C72.4712 17.1686 72.6759 17.1686 72.7205 17.024L74.0842 12.6084C74.1041 12.544 74.1637 12.5 74.2312 12.5H75.7579C75.8627 12.5 75.9368 12.6025 75.9041 12.702L73.5348 19.8943C73.514 19.9574 73.4551 20 73.3887 20L71.7424 20Z" fill="white"/>
<path d="M80.4575 20C79.6587 20 78.9689 19.8487 78.388 19.546C77.8106 19.2402 77.3662 18.8083 77.055 18.2503C76.7438 17.6891 76.5882 17.0287 76.5882 16.2689C76.5882 15.5217 76.7438 14.866 77.055 14.3017C77.3697 13.7342 77.8088 13.2929 78.3725 12.9776C78.9361 12.6592 79.5982 12.5 80.359 12.5C80.85 12.5 81.3133 12.5725 81.749 12.7175C82.1881 12.8594 82.5754 13.0801 82.9108 13.3796C83.2497 13.6791 83.5159 14.0605 83.7095 14.524C83.9032 14.9842 84 15.5328 84 16.1696L83.9997 16.3586C83.9996 16.4526 83.9242 16.5288 83.8313 16.5288H77.4269L77.47 15.5407H81.991C82.0769 15.5407 82.1468 15.4696 82.1432 15.3828C82.1321 15.1184 82.0941 14.8794 81.9668 14.6658C81.8147 14.4073 81.602 14.204 81.3289 14.0558C81.0591 13.9076 80.7445 13.8335 80.3849 13.8335C80.0011 13.8335 79.6639 13.9187 79.3735 14.0889C79.083 14.256 78.8565 14.4767 78.694 14.7509C78.535 15.0221 78.4537 15.32 78.4503 15.6447V16.4862C78.4503 16.9086 78.535 17.4369 78.7044 17.7396C78.8738 18.0391 79.1107 18.2692 79.415 18.43C79.7193 18.5876 80.0754 18.6664 80.4834 18.6664C80.7566 18.6664 81.0038 18.6318 81.2251 18.5624C81.4464 18.4899 81.6383 18.3843 81.8008 18.2456C81.9366 18.1297 82.087 17.94 82.133 17.6697C82.1488 17.5769 82.2225 17.5 82.3155 17.5H83.8312C83.9241 17.5 84.0004 17.5765 83.99 17.67C83.9277 18.2281 83.5722 18.7299 83.2894 19.0164C82.9817 19.3285 82.5875 19.5712 82.1069 19.7446C81.6262 19.9149 81.0764 20 80.4575 20Z" fill="white"/>
<path d="M48.6313 23.3473C48.6644 23.4437 48.5913 23.5408 48.4893 23.5408H48.175C48.1152 23.5408 48.0609 23.5061 48.0341 23.4525C47.9964 23.377 47.9412 23.2722 47.9004 23.219C47.8321 23.1301 47.7485 23.0547 47.6496 22.9927C47.5507 22.9306 47.4399 22.8838 47.3174 22.8523C47.1962 22.8207 47.0673 22.8049 46.9308 22.8049C46.6842 22.8049 46.4634 22.8569 46.2684 22.9611C46.0747 23.0652 45.9215 23.2179 45.8087 23.4191C45.6972 23.6203 45.6415 23.866 45.6415 24.1561C45.6415 24.4486 45.6972 24.6955 45.8087 24.8967C45.9215 25.0979 46.0754 25.25 46.2705 25.353C46.4655 25.4559 46.6849 25.5074 46.9287 25.5074C47.0638 25.5074 47.192 25.4922 47.3132 25.4618C47.4358 25.4302 47.5465 25.384 47.6454 25.3232C47.7443 25.2623 47.8279 25.188 47.8962 25.1003C47.9383 25.0466 47.9955 24.9377 48.0342 24.86C48.0609 24.8063 48.1153 24.7715 48.1752 24.7715H48.5385C48.6234 24.7715 48.695 24.841 48.6815 24.9249C48.6526 25.1047 48.5704 25.1648 48.4896 25.2845C48.3907 25.432 48.2632 25.5595 48.1072 25.6671C47.9526 25.7736 47.7757 25.8561 47.5765 25.9146C47.3773 25.9731 47.1599 26.0023 46.9245 26.0023C46.554 26.0023 46.2238 25.9286 45.934 25.7812C45.6443 25.6326 45.4158 25.4203 45.2487 25.1442C45.0829 24.8681 45 24.5387 45 24.1561C45 23.7724 45.0836 23.4431 45.2508 23.1681C45.4179 22.892 45.6464 22.6803 45.9361 22.5329C46.2259 22.3843 46.5554 22.31 46.9245 22.31C47.1516 22.31 47.3633 22.3375 47.5597 22.3925C47.7576 22.4463 47.9352 22.5258 48.0926 22.6311C48.25 22.7353 48.3803 22.8628 48.4833 23.0137C48.537 23.0917 48.5914 23.2313 48.6313 23.3473Z" fill="white"/>
<path d="M56.5898 26.0023C56.5048 26.0023 56.4359 25.9334 56.4359 25.8485V22.4638C56.4359 22.3789 56.5048 22.31 56.5898 22.31H56.8975C56.9824 22.31 57.0513 22.3789 57.0513 22.4638V25.2331C57.0513 25.318 57.1202 25.3869 57.2051 25.3869H59.9744C60.0593 25.3869 60.1282 25.4558 60.1282 25.5408V25.8485C60.1282 25.9334 60.0593 26.0023 59.9744 26.0023H56.5898Z" fill="white"/>
<path d="M70.8548 22.4638C70.8548 22.3789 70.9236 22.31 71.0086 22.31H71.4103C71.4953 22.31 71.5641 22.3789 71.5641 22.4638V24.6988C71.5641 24.953 71.4871 25.1782 71.333 25.3745C71.1789 25.5696 70.9623 25.7233 70.6831 25.8356C70.404 25.9467 70.0767 26.0023 69.7015 26.0023C69.3277 26.0023 69.032 25.9467 68.7528 25.8356C68.4736 25.7233 68.257 25.5696 68.1029 25.3745C67.9489 25.1782 67.8718 24.953 67.8718 24.6988V22.4638C67.8718 22.3789 67.9407 22.31 68.0257 22.31H68.4251C68.51 22.31 68.5789 22.3789 68.5789 22.4638V24.6545C68.5789 24.8188 68.6254 24.9648 68.7185 25.0925C68.8131 25.2202 68.9158 25.3207 69.0882 25.394C69.2606 25.4661 69.465 25.5022 69.7015 25.5022C69.9394 25.5022 70.1446 25.4661 70.317 25.394C70.4909 25.3207 70.6236 25.2202 70.7152 25.0925C70.8082 24.9648 70.8548 24.8188 70.8548 24.6545V22.4638Z" fill="white"/>
<path d="M79.4616 26.0023C79.3766 26.0023 79.3077 25.9334 79.3077 25.8485V22.4638C79.3077 22.3789 79.3766 22.31 79.4616 22.31H81.1839C81.5475 22.31 81.8485 22.3533 82.087 22.4398C82.3255 22.5251 82.5039 22.6411 82.6223 22.7878C82.7407 22.9332 82.7999 23.0973 82.7999 23.2799C82.7999 23.4338 82.7607 23.5636 82.6823 23.6694C82.604 23.7739 82.4989 23.8581 82.3671 23.9218C82.2371 23.9843 82.0936 24.0299 81.9369 24.0588V24.0949C82.107 24.1009 82.2729 24.1405 82.4347 24.2138C82.5981 24.286 82.7332 24.3887 82.8399 24.5221C82.9467 24.6555 83 24.8178 83 25.0089C83 25.1976 82.9383 25.3671 82.8149 25.5173C82.6932 25.6664 82.5047 25.7848 82.2496 25.8725C81.9944 25.959 81.6684 26.0023 81.2715 26.0023H79.4616ZM80.0807 25.3707C80.0807 25.4557 80.1496 25.5245 80.2346 25.5245H81.1964C81.5666 25.5245 81.8318 25.4729 81.9919 25.3695C82.152 25.2661 82.2321 25.1369 82.2321 24.9819C82.2321 24.8653 82.1912 24.7583 82.1095 24.661C82.0278 24.5636 81.911 24.4861 81.7593 24.4284C81.6092 24.3707 81.4307 24.3418 81.2239 24.3418H80.2346C80.1496 24.3418 80.0807 24.4107 80.0807 24.4957V25.3707ZM80.0807 23.7535C80.0807 23.8385 80.1496 23.9074 80.2346 23.9074H81.1164C81.2898 23.9074 81.4457 23.8833 81.5842 23.8352C81.7242 23.7872 81.8351 23.7199 81.9169 23.6333C82.0003 23.5456 82.0419 23.4422 82.0419 23.3232C82.0419 23.1706 81.9677 23.0426 81.8193 22.9392C81.6709 22.8358 81.4432 22.7842 81.1364 22.7842H80.2346C80.1496 22.7842 80.0807 22.853 80.0807 22.938V23.7535Z" fill="white"/>
<defs>
<linearGradient id="paint0_linear_507_105" x1="9" y1="27.7789" x2="27.1688" y2="5.86144" gradientUnits="userSpaceOnUse">
<stop stop-color="#796532"/>
<stop offset="0.0265" stop-color="#7E6A38"/>
<stop offset="0.1295" stop-color="#8E7B4C"/>
<stop offset="0.2373" stop-color="#99885C"/>
<stop offset="0.3521" stop-color="#A09066"/>
<stop offset="0.486" stop-color="#A39369"/>
<stop offset="0.6157" stop-color="#A09065"/>
<stop offset="0.7435" stop-color="#98875A"/>
<stop offset="0.8706" stop-color="#8B7848"/>
<stop offset="0.9966" stop-color="#7A6633"/>
<stop offset="1" stop-color="#796532"/>
</linearGradient>
<linearGradient id="paint1_linear_507_105" x1="23.4444" y1="27.7789" x2="40.5459" y2="16.3179" gradientUnits="userSpaceOnUse">
<stop stop-color="#796532"/>
<stop offset="0.0265" stop-color="#7E6A38"/>
<stop offset="0.1295" stop-color="#8E7B4C"/>
<stop offset="0.2373" stop-color="#99885C"/>
<stop offset="0.3521" stop-color="#A09066"/>
<stop offset="0.486" stop-color="#A39369"/>
<stop offset="0.6157" stop-color="#A09065"/>
<stop offset="0.7435" stop-color="#98875A"/>
<stop offset="0.8706" stop-color="#8B7848"/>
<stop offset="0.9966" stop-color="#7A6633"/>
<stop offset="1" stop-color="#796532"/>
</linearGradient>
</defs>
</svg>
