<svg width="101" height="36" viewBox="0 0 101 36" fill="none" xmlns="http://www.w3.org/2000/svg">
<g clip-path="url(#clip0_507_96)">
<path d="M4.00882 22.0514C4.05003 20.6571 3.9328 18.9632 4.06523 17.2732C4.4137 12.8255 8.08805 9.06836 12.5262 8.57546C13.4699 8.47064 14.4109 8.50024 15.3535 8.49184C16.0245 8.48584 16.4758 8.81231 16.7934 9.40923C19.5332 14.5619 22.2857 19.7073 25.0343 24.8548C25.3192 25.3885 25.6208 25.9142 25.8845 26.4583C26.1741 27.0552 25.9041 27.4921 25.2427 27.4945C22.9263 27.5033 20.6098 27.4917 18.2933 27.5061C17.9817 27.5081 17.8556 27.3885 17.7644 27.116C17.4436 26.1554 17.0935 25.2048 16.773 24.2438C16.1349 22.3323 14.0213 21.7109 12.6014 23.0256C12.3625 23.2468 12.1853 23.5041 12.0749 23.8166C11.6956 24.8896 11.2843 25.9518 10.927 27.032C10.8026 27.4081 10.6154 27.5101 10.2385 27.5069C8.3321 27.4893 6.42531 27.4877 4.51892 27.5081C4.11964 27.5125 3.99602 27.3977 4.00082 26.9996C4.01962 25.4493 4.00882 23.899 4.00882 22.0514Z" fill="url(#paint0_linear_507_96)"/>
<path d="M31.9904 21.043C31.9904 23.1573 31.9779 25.2715 31.9999 27.3853C32.0048 27.8654 31.8547 27.9565 31.4495 27.988C30.5931 28.0548 30.04 27.8633 29.5863 26.8809C27.6587 22.7083 25.6215 18.5978 23.623 14.4651C22.8106 12.7851 22.0009 11.1034 21.1791 9.42935C20.7761 8.60868 21.0672 8.00641 21.9111 8.02195C23.4119 8.04925 24.9168 7.90225 26.4134 8.12905C29.3342 8.57214 32.0514 11.6263 31.9908 15.3744C31.9601 17.2635 31.9855 19.1535 31.9855 21.043C31.9866 21.043 31.9885 21.043 31.9904 21.043Z" fill="url(#paint1_linear_507_96)"/>
</g>
<path d="M53.262 8.41592C53.262 8.53518 53.1627 8.63044 53.0436 8.6255L49.14 8.4636C49.0209 8.45866 48.9216 8.55392 48.9216 8.67318V18.8811C48.9216 18.997 48.8277 19.0909 48.7118 19.0909H46.5413C46.4255 19.0909 46.3316 18.997 46.3316 18.8811V8.6732C46.3316 8.55394 46.2322 8.45867 46.1131 8.46362L42.2185 8.62548C42.0993 8.63043 42 8.53517 42 8.4159L42 6.20976C42 6.09391 42.0939 6 42.2098 6L53.0523 6C53.1681 6 53.262 6.09391 53.262 6.20976V8.41592Z" fill="url(#paint2_linear_507_96)"/>
<path d="M64.576 18.8811C64.576 18.997 64.4821 19.0909 64.3663 19.0909H62.4641C62.3482 19.0909 62.2543 18.997 62.2543 18.8811V13.1836C62.2543 12.5182 62.1157 12.0218 61.8385 11.6945C61.5728 11.3673 61.2032 11.2036 60.7296 11.2036C60.4524 11.2036 60.1579 11.28 59.846 11.4327C59.5341 11.5854 59.2511 11.7982 58.997 12.0709C58.7544 12.3327 58.5754 12.6382 58.4599 12.9873V18.8811C58.4599 18.997 58.366 19.0909 58.2501 19.0909H56.0707C55.9549 19.0909 55.861 18.997 55.861 18.8811V6.20976C55.861 6.09391 55.9549 6 56.0707 6L58.2501 6C58.366 6 58.4599 6.09391 58.4599 6.20976V10.2649C58.4599 10.4765 58.7652 10.5727 58.9112 10.4196C59.1724 10.1458 59.4782 9.91626 59.8287 9.7309C60.4062 9.42545 61.0357 9.27272 61.7172 9.27272C62.3063 9.27272 62.7857 9.3709 63.1553 9.56727C63.5249 9.75272 63.8137 10.0091 64.0216 10.3364C64.2295 10.6527 64.3739 11.0127 64.4548 11.4164C64.5356 11.8091 64.576 12.2182 64.576 12.6436V18.8811Z" fill="url(#paint3_linear_507_96)"/>
<path d="M73.1872 11.3182C72.4826 11.3182 71.6884 11.4491 71.134 11.7109C70.5795 11.9618 69.7219 12.5454 69.7219 12.9545C69.7219 13.3636 69.7219 19.0909 69.7219 19.0909H67.123V9.27272H69.7219V10.4395C69.7219 10.6565 70.0429 10.7493 70.1824 10.583C70.4202 10.2997 70.6889 10.0587 70.978 9.86181C71.4747 9.52363 72.0003 9.33818 72.5547 9.30545C72.7238 9.29547 72.9446 9.30545 73.0139 9.30545C73.0832 9.30545 73.141 9.3109 73.1872 9.32181V11.3182Z" fill="url(#paint4_linear_507_96)"/>
<path d="M75.9959 19.0909C75.88 19.0909 75.7861 18.997 75.7861 18.8811V9.48248C75.7861 9.36664 75.88 9.27272 75.9959 9.27272H78.1753C78.2911 9.27272 78.385 9.36663 78.385 9.48248V18.8811C78.385 18.997 78.2911 19.0909 78.1753 19.0909H75.9959ZM75.9959 8.45454C75.88 8.45454 75.7861 8.36063 75.7861 8.24478V6.20976C75.7861 6.09391 75.88 6 75.9959 6H78.1753C78.2911 6 78.385 6.09391 78.385 6.20976V8.24478C78.385 8.36063 78.2911 8.45454 78.1753 8.45454H75.9959Z" fill="url(#paint5_linear_507_96)"/>
<path d="M83.7089 19.0909C83.6198 19.0909 83.5404 19.0346 83.5109 18.9506L80.2155 9.55189C80.1677 9.41549 80.2689 9.27272 80.4135 9.27272H82.565C82.6555 9.27272 82.7358 9.33071 82.7642 9.41659L84.6832 15.2163C84.7467 15.4081 85.018 15.4081 85.0815 15.2163L87.0005 9.41659C87.0289 9.33071 87.1092 9.27272 87.1997 9.27272H89.3506C89.4953 9.27272 89.5966 9.41582 89.5484 9.55229L86.2312 18.9509C86.2016 19.0348 86.1223 19.0909 86.0334 19.0909L83.7089 19.0909Z" fill="url(#paint6_linear_507_96)"/>
<path d="M95.9404 19.0909C94.8201 19.0909 93.8525 18.8928 93.0377 18.4966C92.2278 18.0963 91.6046 17.5309 91.1681 16.8004C90.7316 16.0658 90.5134 15.2012 90.5134 14.2066C90.5134 13.2285 90.7316 12.37 91.1681 11.6313C91.6094 10.8884 92.2254 10.3107 93.0159 9.89796C93.8064 9.48114 94.7352 9.27272 95.8022 9.27272C96.4909 9.27272 97.1407 9.36764 97.7518 9.55749C98.3678 9.7432 98.9109 10.0321 99.3814 10.4242C99.8567 10.8162 100.23 11.3156 100.502 11.9223C100.773 12.5248 100.909 13.2429 100.909 14.0766L100.909 14.3239C100.909 14.447 100.803 14.5467 100.672 14.5467H91.6897L91.7501 13.2532H98.0913C98.2118 13.2532 98.3098 13.1603 98.3047 13.0465C98.2892 12.7005 98.2359 12.3876 98.0574 12.108C97.844 11.7696 97.5457 11.5034 97.1626 11.3094C96.7843 11.1154 96.3429 11.0184 95.8385 11.0184C95.3002 11.0184 94.8273 11.1299 94.4199 11.3527C94.0126 11.5715 93.6949 11.8604 93.4669 12.2194C93.2439 12.5743 93.1299 12.9643 93.125 13.3894V14.491C93.125 15.044 93.2439 15.7356 93.4815 16.1318C93.7191 16.5239 94.0514 16.8252 94.4781 17.0356C94.9049 17.242 95.4045 17.3452 95.9768 17.3452C96.3599 17.3452 96.7067 17.2998 97.0171 17.209C97.3275 17.114 97.5966 16.9758 97.8246 16.7942C98.0149 16.6426 98.226 16.3942 98.2904 16.0403C98.3125 15.9189 98.4159 15.8182 98.5464 15.8182H100.672C100.803 15.8182 100.91 15.9183 100.895 16.0407C100.808 16.7713 100.309 17.4283 99.9124 17.8033C99.4808 18.2118 98.9279 18.5296 98.2538 18.7566C97.5796 18.9795 96.8085 19.0909 95.9404 19.0909Z" fill="url(#paint7_linear_507_96)"/>
<path d="M52.5542 25.372C52.5978 25.5039 52.4981 25.6363 52.3592 25.6363H51.6788C51.5972 25.6363 51.5231 25.589 51.487 25.5158C51.4207 25.3813 51.3111 25.1691 51.232 25.0659C51.111 24.9083 50.9628 24.7746 50.7875 24.6646C50.6121 24.5547 50.4158 24.4718 50.1985 24.4158C49.9836 24.3598 49.7552 24.3318 49.5132 24.3318C49.0761 24.3318 48.6847 24.424 48.3389 24.6086C47.9957 24.7932 47.724 25.0639 47.524 25.4206C47.3264 25.7773 47.2277 26.2129 47.2277 26.7272C47.2277 27.2457 47.3264 27.6833 47.524 28.04C47.724 28.3967 47.9969 28.6664 48.3427 28.8489C48.6884 29.0314 49.0773 29.1226 49.5095 29.1226C49.749 29.1226 49.9762 29.0957 50.1911 29.0417C50.4084 28.9858 50.6047 28.9038 50.7801 28.796C50.9554 28.6881 51.1036 28.5564 51.2246 28.4009C51.306 28.297 51.4193 28.0769 51.4871 27.9389C51.5231 27.8655 51.5973 27.8181 51.679 27.8181H52.4261C52.542 27.8181 52.6381 27.9126 52.6252 28.0277C52.5838 28.3959 52.4288 28.502 52.2766 28.7275C52.1013 28.9889 51.8753 29.2149 51.5987 29.4057C51.3246 29.5945 51.011 29.7407 50.6578 29.8444C50.3047 29.9481 49.9194 29.9999 49.5021 29.9999C48.8452 29.9999 48.2599 29.8693 47.7463 29.6079C47.2326 29.3445 46.8276 28.9681 46.5313 28.4787C46.2374 27.9892 46.0905 27.4054 46.0905 26.7272C46.0905 26.0469 46.2386 25.4631 46.535 24.9757C46.8313 24.4863 47.2363 24.1109 47.75 23.8496C48.2636 23.5862 48.8477 23.4545 49.5021 23.4545C49.9046 23.4545 50.28 23.5032 50.6282 23.6007C50.9789 23.6961 51.2937 23.8371 51.5728 24.0238C51.8518 24.2084 52.0827 24.4344 52.2655 24.702C52.3732 24.8584 52.4825 25.1548 52.5542 25.372Z" fill="url(#paint8_linear_507_96)"/>
<path d="M61.9367 29.9999C61.8208 29.9999 61.7269 29.906 61.7269 29.7902V23.6642C61.7269 23.5484 61.8208 23.4545 61.9367 23.4545H62.6081C62.7239 23.4545 62.8178 23.5484 62.8178 23.6642V28.6993C62.8178 28.8151 62.9118 28.909 63.0276 28.909H68.0626C68.1785 28.909 68.2724 29.0029 68.2724 29.1188V29.7902C68.2724 29.906 68.1785 29.9999 68.0626 29.9999H61.9367Z" fill="url(#paint9_linear_507_96)"/>
<path d="M82.6515 23.6642C82.6515 23.5484 82.7454 23.4545 82.8612 23.4545H83.6992C83.8151 23.4545 83.909 23.5484 83.909 23.6642V27.6892C83.909 28.1398 83.7724 28.5391 83.4993 28.887C83.2261 29.2328 82.8421 29.5053 82.3472 29.7044C81.8523 29.9014 81.2722 29.9999 80.607 29.9999C79.9444 29.9999 79.4202 29.9014 78.9253 29.7044C78.4304 29.5053 78.0464 29.2328 77.7732 28.887C77.5001 28.5391 77.3635 28.1398 77.3635 27.6892V23.6642C77.3635 23.5484 77.4574 23.4545 77.5733 23.4545H78.4072C78.5231 23.4545 78.617 23.5484 78.617 23.6642V27.6106C78.617 27.9019 78.6995 28.1608 78.8644 28.3871C79.0321 28.6135 79.2142 28.7916 79.5198 28.9216C79.8254 29.0494 80.1878 29.1134 80.607 29.1134C81.0288 29.1134 81.3926 29.0494 81.6982 28.9216C82.0065 28.7916 82.2417 28.6135 82.404 28.3871C82.569 28.1608 82.6515 27.9019 82.6515 27.6106V23.6642Z" fill="url(#paint10_linear_507_96)"/>
<path d="M93.2098 29.9999C93.0939 29.9999 93 29.906 93 29.7902V23.6642C93 23.5484 93.0939 23.4545 93.2098 23.4545H96.3259C96.9704 23.4545 97.5041 23.5312 97.9268 23.6846C98.3496 23.8359 98.6659 24.0415 98.8758 24.3014C99.0857 24.5592 99.1907 24.8501 99.1907 25.1739C99.1907 25.4467 99.1212 25.6768 98.9823 25.8643C98.8433 26.0496 98.6571 26.1988 98.4235 26.3117C98.1929 26.4225 97.9387 26.5035 97.6608 26.5546V26.6185C97.9623 26.6292 98.2565 26.6995 98.5432 26.8295C98.833 26.9573 99.0724 27.1395 99.2616 27.376C99.4509 27.6125 99.5455 27.9001 99.5455 28.2389C99.5455 28.5734 99.4361 28.8739 99.2173 29.1402C99.0015 29.4044 98.6674 29.6143 98.2151 29.7698C97.7627 29.9232 97.1848 29.9999 96.4812 29.9999H93.2098ZM94.3703 28.9432C94.3703 29.0591 94.4642 29.153 94.58 29.153H96.3481C97.0044 29.153 97.4745 29.0614 97.7583 28.8781C98.0421 28.6949 98.184 28.4658 98.184 28.191C98.184 27.9843 98.1116 27.7947 97.9667 27.6221C97.8219 27.4495 97.6149 27.3121 97.3459 27.2098C97.0798 27.1075 96.7635 27.0564 96.3969 27.0564H94.58C94.4642 27.0564 94.3703 27.1503 94.3703 27.2661V28.9432ZM94.3703 26.0764C94.3703 26.1922 94.4642 26.2861 94.58 26.2861H96.2062C96.5137 26.2861 96.7901 26.2435 97.0355 26.1583C97.2838 26.0731 97.4804 25.9538 97.6253 25.8003C97.7731 25.6448 97.847 25.4616 97.847 25.2506C97.847 24.98 97.7154 24.7531 97.4523 24.5699C97.1892 24.3866 96.7857 24.295 96.2417 24.295H94.58C94.4642 24.295 94.3703 24.3889 94.3703 24.5048V26.0764Z" fill="url(#paint11_linear_507_96)"/>
<defs>
<linearGradient id="paint0_linear_507_96" x1="2.77778" y1="29.6212" x2="24.2522" y2="2.98162" gradientUnits="userSpaceOnUse">
<stop stop-color="#796532"/>
<stop offset="0.0265" stop-color="#7E6A38"/>
<stop offset="0.1295" stop-color="#8E7B4C"/>
<stop offset="0.2373" stop-color="#99885C"/>
<stop offset="0.3521" stop-color="#A09066"/>
<stop offset="0.486" stop-color="#A39369"/>
<stop offset="0.6157" stop-color="#A09065"/>
<stop offset="0.7435" stop-color="#98875A"/>
<stop offset="0.8706" stop-color="#8B7848"/>
<stop offset="0.9966" stop-color="#7A6633"/>
<stop offset="1" stop-color="#796532"/>
</linearGradient>
<linearGradient id="paint1_linear_507_96" x1="20.3889" y1="30.2222" x2="40.6147" y2="18.2938" gradientUnits="userSpaceOnUse">
<stop stop-color="#796532"/>
<stop offset="0.0265" stop-color="#7E6A38"/>
<stop offset="0.1295" stop-color="#8E7B4C"/>
<stop offset="0.2373" stop-color="#99885C"/>
<stop offset="0.3521" stop-color="#A09066"/>
<stop offset="0.486" stop-color="#A39369"/>
<stop offset="0.6157" stop-color="#A09065"/>
<stop offset="0.7435" stop-color="#98875A"/>
<stop offset="0.8706" stop-color="#8B7848"/>
<stop offset="0.9966" stop-color="#7A6633"/>
<stop offset="1" stop-color="#796532"/>
</linearGradient>
<linearGradient id="paint2_linear_507_96" x1="71.4545" y1="6" x2="71.4545" y2="19.0909" gradientUnits="userSpaceOnUse">
<stop stop-color="white"/>
<stop offset="1" stop-color="#F5F5F5"/>
</linearGradient>
<linearGradient id="paint3_linear_507_96" x1="71.4545" y1="6" x2="71.4545" y2="19.0909" gradientUnits="userSpaceOnUse">
<stop stop-color="white"/>
<stop offset="1" stop-color="#F5F5F5"/>
</linearGradient>
<linearGradient id="paint4_linear_507_96" x1="71.4545" y1="6" x2="71.4545" y2="19.0909" gradientUnits="userSpaceOnUse">
<stop stop-color="white"/>
<stop offset="1" stop-color="#F5F5F5"/>
</linearGradient>
<linearGradient id="paint5_linear_507_96" x1="71.4545" y1="6" x2="71.4545" y2="19.0909" gradientUnits="userSpaceOnUse">
<stop stop-color="white"/>
<stop offset="1" stop-color="#F5F5F5"/>
</linearGradient>
<linearGradient id="paint6_linear_507_96" x1="71.4545" y1="6" x2="71.4545" y2="19.0909" gradientUnits="userSpaceOnUse">
<stop stop-color="white"/>
<stop offset="1" stop-color="#F5F5F5"/>
</linearGradient>
<linearGradient id="paint7_linear_507_96" x1="71.4545" y1="6" x2="71.4545" y2="19.0909" gradientUnits="userSpaceOnUse">
<stop stop-color="white"/>
<stop offset="1" stop-color="#F5F5F5"/>
</linearGradient>
<linearGradient id="paint8_linear_507_96" x1="49.3632" y1="23.4545" x2="49.3632" y2="29.9999" gradientUnits="userSpaceOnUse">
<stop stop-color="white"/>
<stop offset="1" stop-color="#F5F5F5"/>
</linearGradient>
<linearGradient id="paint9_linear_507_96" x1="64.9997" y1="23.4545" x2="64.9997" y2="29.9999" gradientUnits="userSpaceOnUse">
<stop stop-color="white"/>
<stop offset="1" stop-color="#F5F5F5"/>
</linearGradient>
<linearGradient id="paint10_linear_507_96" x1="80.6363" y1="23.4545" x2="80.6363" y2="29.9999" gradientUnits="userSpaceOnUse">
<stop stop-color="white"/>
<stop offset="1" stop-color="#F5F5F5"/>
</linearGradient>
<linearGradient id="paint11_linear_507_96" x1="96.2727" y1="23.4545" x2="96.2727" y2="29.9999" gradientUnits="userSpaceOnUse">
<stop stop-color="white"/>
<stop offset="1" stop-color="#F5F5F5"/>
</linearGradient>
<clipPath id="clip0_507_96">
<path d="M0 14.4C0 9.35953 0 6.83929 0.980941 4.91409C1.8438 3.22063 3.22063 1.8438 4.91409 0.980941C6.83929 0 9.35953 0 14.4 0H21.6C26.6405 0 29.1607 0 31.0859 0.980941C32.7794 1.8438 34.1562 3.22063 35.0191 4.91409C36 6.83929 36 9.35953 36 14.4V21.6C36 26.6405 36 29.1607 35.0191 31.0859C34.1562 32.7794 32.7794 34.1562 31.0859 35.0191C29.1607 36 26.6405 36 21.6 36H14.4C9.35953 36 6.83929 36 4.91409 35.0191C3.22063 34.1562 1.8438 32.7794 0.980941 31.0859C0 29.1607 0 26.6405 0 21.6V14.4Z" fill="white"/>
</clipPath>
</defs>
</svg>
