<svg width="64" height="36" viewBox="0 0 64 36" fill="none" xmlns="http://www.w3.org/2000/svg">
<path d="M0 12.8C0 8.31958 0 6.07937 0.871948 4.36808C1.63893 2.86278 2.86278 1.63893 4.36808 0.871948C6.07937 0 8.31958 0 12.8 0H51.2C55.6804 0 57.9206 0 59.6319 0.871948C61.1372 1.63893 62.3611 2.86278 63.1281 4.36808C64 6.07937 64 8.31958 64 12.8V23.2C64 27.6804 64 29.9206 63.1281 31.6319C62.3611 33.1372 61.1372 34.3611 59.6319 35.1281C57.9206 36 55.6804 36 51.2 36H12.8C8.31958 36 6.07937 36 4.36808 35.1281C2.86278 34.3611 1.63893 33.1372 0.871948 31.6319C0 29.9206 0 27.6804 0 23.2V12.8Z" fill="#98875A"/>
<path d="M16.8396 10.0133C16.8396 10.1126 16.7569 10.192 16.6576 10.1879L13.4046 10.053C13.3053 10.0489 13.2226 10.1283 13.2226 10.2277V18.7343C13.2226 18.8308 13.1443 18.9091 13.0478 18.9091H11.239C11.1425 18.9091 11.0642 18.8308 11.0642 18.7343V10.2277C11.0642 10.1283 10.9815 10.0489 10.8822 10.053L7.63665 10.1879C7.53735 10.192 7.45459 10.1126 7.45459 10.0133L7.45459 8.1748C7.45459 8.07826 7.53285 8 7.62939 8L16.6648 8C16.7614 8 16.8396 8.07826 16.8396 8.1748V10.0133Z" fill="url(#paint0_linear_507_85)"/>
<path d="M26.268 18.7343C26.268 18.8308 26.1897 18.9091 26.0932 18.9091H24.508C24.4115 18.9091 24.3332 18.8308 24.3332 18.7343V13.9864C24.3332 13.4318 24.2177 13.0182 23.9867 12.7454C23.7653 12.4727 23.4573 12.3364 23.0626 12.3364C22.8316 12.3364 22.5861 12.4 22.3262 12.5273C22.0664 12.6545 21.8305 12.8318 21.6188 13.0591C21.4166 13.2773 21.2674 13.5318 21.1712 13.8227V18.7343C21.1712 18.8308 21.0929 18.9091 20.9964 18.9091H19.1802C19.0837 18.9091 19.0054 18.8308 19.0054 18.7343V8.1748C19.0054 8.07826 19.0837 8 19.1802 8L20.9964 8C21.0929 8 21.1712 8.07826 21.1712 8.1748V11.5541C21.1712 11.7304 21.4256 11.8106 21.5473 11.683C21.7649 11.4548 22.0197 11.2636 22.3118 11.1091C22.7931 10.8545 23.3177 10.7273 23.8856 10.7273C24.3765 10.7273 24.776 10.8091 25.084 10.9727C25.392 11.1273 25.6327 11.3409 25.8059 11.6136C25.9792 11.8773 26.0995 12.1773 26.1669 12.5136C26.2343 12.8409 26.268 13.1818 26.268 13.5364V18.7343Z" fill="url(#paint1_linear_507_85)"/>
<path d="M33.4439 12.4318C32.8567 12.4318 32.1949 12.5409 31.7329 12.7591C31.2709 12.9682 30.5562 13.4545 30.5562 13.7954C30.5562 14.1364 30.5562 18.9091 30.5562 18.9091H28.3904V10.7273H30.5562V11.6996C30.5562 11.8804 30.8237 11.9577 30.94 11.8192C31.1381 11.5831 31.362 11.3823 31.603 11.2182C32.0169 10.9364 32.4548 10.7818 32.9169 10.7545C33.0577 10.7462 33.2418 10.7545 33.2995 10.7545C33.3573 10.7545 33.4054 10.7591 33.4439 10.7682V12.4318Z" fill="url(#paint2_linear_507_85)"/>
<path d="M35.7845 18.9091C35.6879 18.9091 35.6097 18.8308 35.6097 18.7343V10.9021C35.6097 10.8055 35.6879 10.7273 35.7845 10.7273H37.6006C37.6972 10.7273 37.7754 10.8055 37.7754 10.9021V18.7343C37.7754 18.8308 37.6972 18.9091 37.6006 18.9091H35.7845ZM35.7845 10.0455C35.6879 10.0455 35.6097 9.96719 35.6097 9.87065V8.1748C35.6097 8.07826 35.6879 8 35.7845 8H37.6006C37.6972 8 37.7754 8.07826 37.7754 8.1748V9.87065C37.7754 9.96719 37.6972 10.0455 37.6006 10.0455H35.7845Z" fill="url(#paint3_linear_507_85)"/>
<path d="M42.212 18.9091C42.1378 18.9091 42.0716 18.8622 42.0471 18.7921L39.3009 10.9599C39.261 10.8462 39.3454 10.7273 39.4658 10.7273H41.2588C41.3342 10.7273 41.4011 10.7756 41.4247 10.8472L43.0239 15.6803C43.0768 15.8401 43.3029 15.8401 43.3558 15.6803L44.955 10.8472C44.9787 10.7756 45.0456 10.7273 45.121 10.7273H46.9134C47.034 10.7273 47.1184 10.8465 47.0782 10.9602L44.3139 18.7925C44.2893 18.8623 44.2232 18.9091 44.1491 18.9091L42.212 18.9091Z" fill="url(#paint4_linear_507_85)"/>
<path d="M52.4049 18.9091C51.4713 18.9091 50.665 18.744 49.986 18.4138C49.3111 18.0802 48.7918 17.6091 48.428 17.0003C48.0643 16.3882 47.8824 15.6676 47.8824 14.8388C47.8824 14.0237 48.0643 13.3084 48.428 12.6928C48.7958 12.0737 49.3091 11.5922 49.9679 11.2483C50.6266 10.9009 51.4006 10.7273 52.2897 10.7273C52.8636 10.7273 53.4052 10.8064 53.9144 10.9646C54.4277 11.1193 54.8804 11.3601 55.2724 11.6868C55.6685 12.0135 55.9797 12.4297 56.206 12.9352C56.4323 13.4373 56.5455 14.0358 56.5455 14.7305L56.5452 14.9366C56.545 15.0392 56.4569 15.1223 56.3483 15.1223H48.8627L48.913 14.0444H54.1973C54.2977 14.0444 54.3795 13.9669 54.3752 13.8721C54.3623 13.5837 54.3178 13.323 54.1691 13.09C53.9912 12.808 53.7427 12.5861 53.4234 12.4245C53.1081 12.2629 52.7404 12.182 52.32 12.182C51.8714 12.182 51.4774 12.2749 51.1379 12.4606C50.7984 12.6429 50.5337 12.8836 50.3437 13.1828C50.1578 13.4786 50.0628 13.8036 50.0588 14.1578V15.0759C50.0588 15.5367 50.1578 16.113 50.3558 16.4432C50.5539 16.7699 50.8307 17.021 51.1864 17.1964C51.542 17.3683 51.9583 17.4543 52.4352 17.4543C52.7545 17.4543 53.0435 17.4165 53.3021 17.3408C53.5608 17.2617 53.7851 17.1465 53.9751 16.9952C54.1337 16.8688 54.3096 16.6618 54.3633 16.3669C54.3817 16.2657 54.4679 16.1818 54.5766 16.1818H56.3482C56.4568 16.1818 56.546 16.2652 56.5338 16.3672C56.461 16.9761 56.0455 17.5236 55.715 17.8361C55.3553 18.1765 54.8945 18.4413 54.3327 18.6305C53.771 18.8162 53.1284 18.9091 52.4049 18.9091Z" fill="url(#paint5_linear_507_85)"/>
<path d="M16.2495 24.1434C16.2858 24.2533 16.2028 24.3636 16.087 24.3636H15.52C15.452 24.3636 15.3902 24.3242 15.3601 24.2632C15.3049 24.1511 15.2136 23.9742 15.1476 23.8883C15.0468 23.757 14.9233 23.6455 14.7772 23.5539C14.6311 23.4623 14.4675 23.3931 14.2864 23.3465C14.1074 23.2998 13.917 23.2765 13.7153 23.2765C13.3511 23.2765 13.0249 23.3534 12.7368 23.5072C12.4507 23.661 12.2244 23.8866 12.0577 24.1838C11.893 24.4811 11.8107 24.8441 11.8107 25.2727C11.8107 25.7048 11.893 26.0694 12.0577 26.3667C12.2244 26.664 12.4518 26.8887 12.7399 27.0407C13.028 27.1928 13.3521 27.2689 13.7122 27.2689C13.9119 27.2689 14.1012 27.2464 14.2802 27.2015C14.4613 27.1548 14.6249 27.0865 14.771 26.9967C14.9172 26.9068 15.0406 26.7971 15.1415 26.6674C15.2093 26.5809 15.3037 26.3974 15.3602 26.2824C15.3902 26.2213 15.4521 26.1818 15.5202 26.1818H16.1428C16.2393 26.1818 16.3194 26.2605 16.3086 26.3565C16.2741 26.6632 16.145 26.7517 16.0182 26.9396C15.872 27.1574 15.6837 27.3458 15.4533 27.5048C15.2248 27.6621 14.9635 27.7839 14.6692 27.8703C14.3749 27.9567 14.0539 28 13.7061 28C13.1587 28 12.6709 27.8911 12.2429 27.6733C11.8148 27.4538 11.4773 27.1401 11.2304 26.7322C10.9855 26.3244 10.863 25.8378 10.863 25.2727C10.863 24.7058 10.9865 24.2193 11.2335 23.8131C11.4804 23.4052 11.8179 23.0924 12.246 22.8747C12.674 22.6552 13.1607 22.5454 13.7061 22.5454C14.0415 22.5454 14.3543 22.586 14.6445 22.6673C14.9367 22.7468 15.1991 22.8643 15.4316 23.0198C15.6642 23.1737 15.8566 23.362 16.0089 23.585C16.0986 23.7153 16.1898 23.9624 16.2495 24.1434Z" fill="url(#paint6_linear_507_85)"/>
<path d="M24.0684 28C23.9718 28 23.8936 27.9217 23.8936 27.8252V22.7202C23.8936 22.6237 23.9718 22.5454 24.0684 22.5454H24.6278C24.7244 22.5454 24.8026 22.6237 24.8026 22.7202V26.9161C24.8026 27.0126 24.8809 27.0909 24.9774 27.0909H29.1733C29.2698 27.0909 29.3481 27.1691 29.3481 27.2657V27.8252C29.3481 27.9217 29.2698 28 29.1733 28H24.0684Z" fill="url(#paint7_linear_507_85)"/>
<path d="M41.3307 22.7202C41.3307 22.6237 41.4089 22.5454 41.5055 22.5454H42.2038C42.3004 22.5454 42.3786 22.6237 42.3786 22.7202V26.0744C42.3786 26.4499 42.2648 26.7826 42.0372 27.0725C41.8096 27.3607 41.4896 27.5878 41.0771 27.7537C40.6647 27.9179 40.1813 28 39.6269 28C39.0748 28 38.638 27.9179 38.2255 27.7537C37.8131 27.5878 37.4931 27.3607 37.2655 27.0725C37.0379 26.7826 36.9241 26.4499 36.9241 26.0744V22.7202C36.9241 22.6237 37.0023 22.5454 37.0989 22.5454H37.7938C37.8904 22.5454 37.9686 22.6237 37.9686 22.7202V26.0089C37.9686 26.2516 38.0374 26.4673 38.1748 26.656C38.3146 26.8446 38.4663 26.9931 38.721 27.1013C38.9756 27.2079 39.2776 27.2612 39.6269 27.2612C39.9785 27.2612 40.2816 27.2079 40.5363 27.1013C40.7932 26.9931 40.9893 26.8446 41.1245 26.656C41.2619 26.4673 41.3307 26.2516 41.3307 26.0089V22.7202Z" fill="url(#paint8_linear_507_85)"/>
<path d="M50.1294 28C50.0329 28 49.9546 27.9217 49.9546 27.8252V22.7202C49.9546 22.6237 50.0329 22.5454 50.1294 22.5454H52.7262C53.2633 22.5454 53.708 22.6093 54.0603 22.7372C54.4126 22.8632 54.6762 23.0346 54.8511 23.2512C55.026 23.466 55.1135 23.7084 55.1135 23.9783C55.1135 24.2056 55.0556 24.3973 54.9398 24.5536C54.824 24.7081 54.6688 24.8323 54.4742 24.9264C54.282 25.0188 54.0701 25.0862 53.8386 25.1289V25.1821C54.0898 25.191 54.335 25.2496 54.574 25.3579C54.8154 25.4644 55.0149 25.6163 55.1726 25.8133C55.3303 26.0104 55.4091 26.2501 55.4091 26.5324C55.4091 26.8112 55.318 27.0616 55.1357 27.2835C54.9558 27.5037 54.6774 27.6786 54.3005 27.8082C53.9235 27.936 53.4419 28 52.8556 28H50.1294ZM51.0965 27.1194C51.0965 27.2159 51.1748 27.2942 51.2713 27.2942H52.7447C53.2916 27.2942 53.6833 27.2178 53.9199 27.0651C54.1564 26.9124 54.2746 26.7215 54.2746 26.4925C54.2746 26.3203 54.2143 26.1622 54.0935 26.0184C53.9728 25.8746 53.8004 25.7601 53.5762 25.6748C53.3544 25.5896 53.0908 25.547 52.7853 25.547H51.2713C51.1748 25.547 51.0965 25.6253 51.0965 25.7218V27.1194ZM51.0965 24.7303C51.0965 24.8269 51.1748 24.9051 51.2713 24.9051H52.6264C52.8827 24.9051 53.113 24.8696 53.3175 24.7986C53.5244 24.7276 53.6883 24.6282 53.809 24.5003C53.9322 24.3707 53.9938 24.218 53.9938 24.0422C53.9938 23.8167 53.8841 23.6276 53.6649 23.4749C53.4456 23.3222 53.1093 23.2459 52.656 23.2459H51.2713C51.1748 23.2459 51.0965 23.3241 51.0965 23.4207V24.7303Z" fill="url(#paint9_linear_507_85)"/>
<defs>
<linearGradient id="paint0_linear_507_85" x1="32" y1="8" x2="32" y2="18.9091" gradientUnits="userSpaceOnUse">
<stop stop-color="white"/>
<stop offset="1" stop-color="#F5F5F5"/>
</linearGradient>
<linearGradient id="paint1_linear_507_85" x1="32" y1="8" x2="32" y2="18.9091" gradientUnits="userSpaceOnUse">
<stop stop-color="white"/>
<stop offset="1" stop-color="#F5F5F5"/>
</linearGradient>
<linearGradient id="paint2_linear_507_85" x1="32" y1="8" x2="32" y2="18.9091" gradientUnits="userSpaceOnUse">
<stop stop-color="white"/>
<stop offset="1" stop-color="#F5F5F5"/>
</linearGradient>
<linearGradient id="paint3_linear_507_85" x1="32" y1="8" x2="32" y2="18.9091" gradientUnits="userSpaceOnUse">
<stop stop-color="white"/>
<stop offset="1" stop-color="#F5F5F5"/>
</linearGradient>
<linearGradient id="paint4_linear_507_85" x1="32" y1="8" x2="32" y2="18.9091" gradientUnits="userSpaceOnUse">
<stop stop-color="white"/>
<stop offset="1" stop-color="#F5F5F5"/>
</linearGradient>
<linearGradient id="paint5_linear_507_85" x1="32" y1="8" x2="32" y2="18.9091" gradientUnits="userSpaceOnUse">
<stop stop-color="white"/>
<stop offset="1" stop-color="#F5F5F5"/>
</linearGradient>
<linearGradient id="paint6_linear_507_85" x1="13.5903" y1="22.5454" x2="13.5903" y2="28" gradientUnits="userSpaceOnUse">
<stop stop-color="white"/>
<stop offset="1" stop-color="#F5F5F5"/>
</linearGradient>
<linearGradient id="paint7_linear_507_85" x1="26.6208" y1="22.5454" x2="26.6208" y2="28" gradientUnits="userSpaceOnUse">
<stop stop-color="white"/>
<stop offset="1" stop-color="#F5F5F5"/>
</linearGradient>
<linearGradient id="paint8_linear_507_85" x1="39.6513" y1="22.5454" x2="39.6513" y2="28" gradientUnits="userSpaceOnUse">
<stop stop-color="white"/>
<stop offset="1" stop-color="#F5F5F5"/>
</linearGradient>
<linearGradient id="paint9_linear_507_85" x1="52.6819" y1="22.5454" x2="52.6819" y2="28" gradientUnits="userSpaceOnUse">
<stop stop-color="white"/>
<stop offset="1" stop-color="#F5F5F5"/>
</linearGradient>
</defs>
</svg>
