<svg width="36" height="36" viewBox="0 0 36 36" fill="none" xmlns="http://www.w3.org/2000/svg">
<g clip-path="url(#clip0_507_99)">
<path d="M4.00882 22.0514C4.05003 20.6571 3.9328 18.9632 4.06523 17.2732C4.4137 12.8255 8.08805 9.06836 12.5262 8.57546C13.4699 8.47064 14.4109 8.50024 15.3535 8.49184C16.0245 8.48584 16.4758 8.81231 16.7934 9.40923C19.5332 14.5619 22.2857 19.7073 25.0343 24.8548C25.3192 25.3885 25.6208 25.9142 25.8845 26.4583C26.1741 27.0552 25.9041 27.4921 25.2427 27.4945C22.9263 27.5033 20.6098 27.4917 18.2933 27.5061C17.9817 27.5081 17.8556 27.3885 17.7644 27.116C17.4436 26.1554 17.0935 25.2048 16.773 24.2438C16.1349 22.3323 14.0213 21.7109 12.6014 23.0256C12.3625 23.2468 12.1853 23.5041 12.0749 23.8166C11.6956 24.8896 11.2843 25.9518 10.927 27.032C10.8026 27.4081 10.6154 27.5101 10.2385 27.5069C8.3321 27.4893 6.42531 27.4877 4.51892 27.5081C4.11964 27.5125 3.99602 27.3977 4.00082 26.9996C4.01962 25.4493 4.00882 23.899 4.00882 22.0514Z" fill="url(#paint0_linear_507_99)"/>
<path d="M31.9895 21.043C31.9895 23.1573 31.9759 25.2715 31.9999 27.3853C32.0052 27.8654 31.8415 27.9565 31.3994 27.988C30.4652 28.0548 29.8619 27.8633 29.3669 26.8809C27.264 22.7083 25.0416 18.5978 22.8615 14.4651C21.9752 12.7851 21.0919 11.1034 20.1954 9.42935C19.7558 8.60868 20.0734 8.00641 20.9939 8.02195C22.6311 8.04925 24.2729 7.90225 25.9055 8.12905C29.0919 8.57214 32.0561 11.6263 31.9899 15.3744C31.9565 17.2635 31.9842 19.1535 31.9842 21.043C31.9854 21.043 31.9875 21.043 31.9895 21.043Z" fill="url(#paint1_linear_507_99)"/>
</g>
<defs>
<linearGradient id="paint0_linear_507_99" x1="2.77778" y1="29.6212" x2="24.2522" y2="2.98162" gradientUnits="userSpaceOnUse">
<stop stop-color="#796532"/>
<stop offset="0.0265" stop-color="#7E6A38"/>
<stop offset="0.1295" stop-color="#8E7B4C"/>
<stop offset="0.2373" stop-color="#99885C"/>
<stop offset="0.3521" stop-color="#A09066"/>
<stop offset="0.486" stop-color="#A39369"/>
<stop offset="0.6157" stop-color="#A09065"/>
<stop offset="0.7435" stop-color="#98875A"/>
<stop offset="0.8706" stop-color="#8B7848"/>
<stop offset="0.9966" stop-color="#7A6633"/>
<stop offset="1" stop-color="#796532"/>
</linearGradient>
<linearGradient id="paint1_linear_507_99" x1="19.3333" y1="30.2222" x2="40.3662" y2="16.6902" gradientUnits="userSpaceOnUse">
<stop stop-color="#796532"/>
<stop offset="0.0265" stop-color="#7E6A38"/>
<stop offset="0.1295" stop-color="#8E7B4C"/>
<stop offset="0.2373" stop-color="#99885C"/>
<stop offset="0.3521" stop-color="#A09066"/>
<stop offset="0.486" stop-color="#A39369"/>
<stop offset="0.6157" stop-color="#A09065"/>
<stop offset="0.7435" stop-color="#98875A"/>
<stop offset="0.8706" stop-color="#8B7848"/>
<stop offset="0.9966" stop-color="#7A6633"/>
<stop offset="1" stop-color="#796532"/>
</linearGradient>
<clipPath id="clip0_507_99">
<path d="M0 12.8C0 8.31958 0 6.07937 0.871948 4.36808C1.63893 2.86278 2.86278 1.63893 4.36808 0.871948C6.07937 0 8.31958 0 12.8 0H23.2C27.6804 0 29.9206 0 31.6319 0.871948C33.1372 1.63893 34.3611 2.86278 35.1281 4.36808C36 6.07937 36 8.31958 36 12.8V23.2C36 27.6804 36 29.9206 35.1281 31.6319C34.3611 33.1372 33.1372 34.3611 31.6319 35.1281C29.9206 36 27.6804 36 23.2 36H12.8C8.31958 36 6.07937 36 4.36808 35.1281C2.86278 34.3611 1.63893 33.1372 0.871948 31.6319C0 29.9206 0 27.6804 0 23.2V12.8Z" fill="white"/>
</clipPath>
</defs>
</svg>
