<svg width="107" height="36" viewBox="0 0 107 36" fill="none" xmlns="http://www.w3.org/2000/svg">
<g clip-path="url(#clip0_507_90)">
<path d="M0 12.8C0 8.31958 0 6.07937 0.871948 4.36808C1.63893 2.86278 2.86278 1.63893 4.36808 0.871948C6.07937 0 8.31958 0 12.8 0H23.2C27.6804 0 29.9206 0 31.6319 0.871948C33.1372 1.63893 34.3611 2.86278 35.1281 4.36808C36 6.07937 36 8.31958 36 12.8V23.2C36 27.6804 36 29.9206 35.1281 31.6319C34.3611 33.1372 33.1372 34.3611 31.6319 35.1281C29.9206 36 27.6804 36 23.2 36H12.8C8.31958 36 6.07937 36 4.36808 35.1281C2.86278 34.3611 1.63893 33.1372 0.871948 31.6319C0 29.9206 0 27.6804 0 23.2V12.8Z" fill="#98875A"/>
<path d="M6.00722 21.4089C6.04093 20.2358 5.94502 18.8105 6.05337 17.3886C6.33848 13.6464 9.34477 10.4853 12.9759 10.0705C13.7481 9.98235 14.518 10.0073 15.2893 10.0002C15.8382 9.99514 16.2074 10.2698 16.4673 10.7721C18.709 15.1074 20.9611 19.4366 23.2099 23.7676C23.4429 24.2166 23.6898 24.6589 23.9055 25.1167C24.1425 25.619 23.9215 25.9866 23.3804 25.9886C21.4851 25.996 19.5898 25.9862 17.6945 25.9983C17.4395 26 17.3364 25.8994 17.2618 25.6701C16.9993 24.8619 16.7128 24.0621 16.4506 23.2535C15.9285 21.6452 14.1992 21.1224 13.0375 22.2285C12.8421 22.4147 12.697 22.6311 12.6067 22.894C12.2964 23.7968 11.9599 24.6906 11.6676 25.5994C11.5658 25.9159 11.4126 26.0017 11.1042 25.999C9.54444 25.9842 7.98435 25.9829 6.42457 26C6.09789 26.0037 5.99674 25.9071 6.00067 25.5722C6.01605 24.2678 6.00722 22.9634 6.00722 21.4089Z" fill="white"/>
<path d="M29.9913 20.4345C29.9913 22.1259 29.9799 23.8173 29.9999 25.5084C30.0044 25.8924 29.8679 25.9653 29.4995 25.9905C28.721 26.044 28.2182 25.8907 27.8057 25.1049C26.0533 21.7667 24.2014 18.4784 22.3845 15.1722C21.646 13.8282 20.9099 12.4829 20.1628 11.1436C19.7965 10.4871 20.0611 10.0053 20.8283 10.0177C22.1926 10.0395 23.5607 9.92193 24.9213 10.1034C27.5765 10.4578 30.0468 12.9012 29.9916 15.8996C29.9637 17.4109 29.9868 18.9229 29.9868 20.4345C29.9878 20.4345 29.9896 20.4345 29.9913 20.4345Z" fill="white"/>
</g>
<path d="M59.262 8.41592C59.262 8.53518 59.1627 8.63044 59.0436 8.6255L55.14 8.4636C55.0209 8.45866 54.9216 8.55392 54.9216 8.67318V18.8811C54.9216 18.997 54.8277 19.0909 54.7118 19.0909H52.5413C52.4255 19.0909 52.3316 18.997 52.3316 18.8811V8.6732C52.3316 8.55394 52.2322 8.45867 52.1131 8.46362L48.2185 8.62548C48.0993 8.63043 48 8.53517 48 8.4159L48 6.20976C48 6.09391 48.0939 6 48.2098 6L59.0523 6C59.1681 6 59.262 6.09391 59.262 6.20976V8.41592Z" fill="url(#paint0_linear_507_90)"/>
<path d="M70.576 18.8811C70.576 18.997 70.4821 19.0909 70.3663 19.0909H68.4641C68.3482 19.0909 68.2543 18.997 68.2543 18.8811V13.1836C68.2543 12.5182 68.1157 12.0218 67.8385 11.6945C67.5728 11.3673 67.2032 11.2036 66.7296 11.2036C66.4524 11.2036 66.1579 11.28 65.846 11.4327C65.5341 11.5854 65.2511 11.7982 64.997 12.0709C64.7544 12.3327 64.5754 12.6382 64.4599 12.9873V18.8811C64.4599 18.997 64.366 19.0909 64.2501 19.0909H62.0707C61.9549 19.0909 61.861 18.997 61.861 18.8811V6.20976C61.861 6.09391 61.9549 6 62.0707 6L64.2501 6C64.366 6 64.4599 6.09391 64.4599 6.20976V10.2649C64.4599 10.4765 64.7652 10.5727 64.9112 10.4196C65.1724 10.1458 65.4782 9.91626 65.8287 9.7309C66.4062 9.42545 67.0357 9.27272 67.7172 9.27272C68.3063 9.27272 68.7857 9.3709 69.1553 9.56727C69.5249 9.75272 69.8137 10.0091 70.0216 10.3364C70.2295 10.6527 70.3739 11.0127 70.4548 11.4164C70.5356 11.8091 70.576 12.2182 70.576 12.6436V18.8811Z" fill="url(#paint1_linear_507_90)"/>
<path d="M79.1872 11.3182C78.4826 11.3182 77.6884 11.4491 77.134 11.7109C76.5795 11.9618 75.7219 12.5454 75.7219 12.9545C75.7219 13.3636 75.7219 19.0909 75.7219 19.0909H73.123V9.27272H75.7219V10.4395C75.7219 10.6565 76.0429 10.7493 76.1824 10.583C76.4202 10.2997 76.6889 10.0587 76.978 9.86181C77.4747 9.52363 78.0003 9.33818 78.5547 9.30545C78.7238 9.29547 78.9446 9.30545 79.0139 9.30545C79.0832 9.30545 79.141 9.3109 79.1872 9.32181V11.3182Z" fill="url(#paint2_linear_507_90)"/>
<path d="M81.9959 19.0909C81.88 19.0909 81.7861 18.997 81.7861 18.8811V9.48248C81.7861 9.36664 81.88 9.27272 81.9959 9.27272H84.1753C84.2911 9.27272 84.385 9.36663 84.385 9.48248V18.8811C84.385 18.997 84.2911 19.0909 84.1753 19.0909H81.9959ZM81.9959 8.45454C81.88 8.45454 81.7861 8.36063 81.7861 8.24478V6.20976C81.7861 6.09391 81.88 6 81.9959 6H84.1753C84.2911 6 84.385 6.09391 84.385 6.20976V8.24478C84.385 8.36063 84.2911 8.45454 84.1753 8.45454H81.9959Z" fill="url(#paint3_linear_507_90)"/>
<path d="M89.7089 19.0909C89.6198 19.0909 89.5404 19.0346 89.5109 18.9506L86.2155 9.55189C86.1677 9.41549 86.2689 9.27272 86.4135 9.27272H88.565C88.6555 9.27272 88.7358 9.33071 88.7642 9.41659L90.6832 15.2163C90.7467 15.4081 91.018 15.4081 91.0815 15.2163L93.0005 9.41659C93.0289 9.33071 93.1092 9.27272 93.1997 9.27272H95.3506C95.4953 9.27272 95.5966 9.41582 95.5484 9.55229L92.2312 18.9509C92.2016 19.0348 92.1223 19.0909 92.0334 19.0909L89.7089 19.0909Z" fill="url(#paint4_linear_507_90)"/>
<path d="M101.94 19.0909C100.82 19.0909 99.8525 18.8928 99.0377 18.4966C98.2278 18.0963 97.6046 17.5309 97.1681 16.8004C96.7316 16.0658 96.5134 15.2012 96.5134 14.2066C96.5134 13.2285 96.7316 12.37 97.1681 11.6313C97.6094 10.8884 98.2254 10.3107 99.0159 9.89796C99.8064 9.48114 100.735 9.27272 101.802 9.27272C102.491 9.27272 103.141 9.36764 103.752 9.55749C104.368 9.7432 104.911 10.0321 105.381 10.4242C105.857 10.8162 106.23 11.3156 106.502 11.9223C106.773 12.5248 106.909 13.2429 106.909 14.0766L106.909 14.3239C106.909 14.447 106.803 14.5467 106.672 14.5467H97.6897L97.7501 13.2532H104.091C104.212 13.2532 104.31 13.1603 104.305 13.0465C104.289 12.7005 104.236 12.3876 104.057 12.108C103.844 11.7696 103.546 11.5034 103.163 11.3094C102.784 11.1154 102.343 11.0184 101.839 11.0184C101.3 11.0184 100.827 11.1299 100.42 11.3527C100.013 11.5715 99.6949 11.8604 99.4669 12.2194C99.2439 12.5743 99.1299 12.9643 99.125 13.3894V14.491C99.125 15.044 99.2439 15.7356 99.4815 16.1318C99.7191 16.5239 100.051 16.8252 100.478 17.0356C100.905 17.242 101.404 17.3452 101.977 17.3452C102.36 17.3452 102.707 17.2998 103.017 17.209C103.327 17.114 103.597 16.9758 103.825 16.7942C104.015 16.6426 104.226 16.3942 104.29 16.0403C104.313 15.9189 104.416 15.8182 104.546 15.8182H106.672C106.803 15.8182 106.91 15.9183 106.895 16.0407C106.808 16.7713 106.309 17.4283 105.912 17.8033C105.481 18.2118 104.928 18.5296 104.254 18.7566C103.58 18.9795 102.809 19.0909 101.94 19.0909Z" fill="url(#paint5_linear_507_90)"/>
<path d="M58.5542 25.3721C58.5978 25.5041 58.4981 25.6364 58.3592 25.6364H57.6788C57.5972 25.6364 57.5231 25.5891 57.487 25.5159C57.4207 25.3814 57.3111 25.1692 57.232 25.0661C57.111 24.9084 56.9628 24.7747 56.7875 24.6648C56.6121 24.5548 56.4158 24.4719 56.1985 24.4159C55.9836 24.3599 55.7552 24.3319 55.5132 24.3319C55.0761 24.3319 54.6847 24.4242 54.3389 24.6088C53.9957 24.7933 53.724 25.064 53.524 25.4207C53.3264 25.7774 53.2277 26.213 53.2277 26.7273C53.2277 27.2458 53.3264 27.6834 53.524 28.0401C53.724 28.3969 53.9969 28.6665 54.3427 28.849C54.6884 29.0315 55.0773 29.1228 55.5095 29.1228C55.749 29.1228 55.9762 29.0958 56.1911 29.0419C56.4084 28.9859 56.6047 28.904 56.7801 28.7961C56.9554 28.6883 57.1036 28.5566 57.2246 28.401C57.306 28.2971 57.4193 28.077 57.4871 27.939C57.5231 27.8657 57.5973 27.8182 57.679 27.8182H58.4261C58.542 27.8182 58.6381 27.9127 58.6252 28.0278C58.5838 28.396 58.4288 28.5022 58.2766 28.7277C58.1013 28.989 57.8753 29.215 57.5987 29.4059C57.3246 29.5946 57.011 29.7408 56.6578 29.8445C56.3047 29.9482 55.9194 30 55.5021 30C54.8452 30 54.2599 29.8694 53.7463 29.6081C53.2326 29.3447 52.8276 28.9682 52.5313 28.4788C52.2374 27.9893 52.0905 27.4055 52.0905 26.7273C52.0905 26.0471 52.2386 25.4632 52.535 24.9758C52.8313 24.4864 53.2363 24.111 53.75 23.8497C54.2636 23.5863 54.8477 23.4546 55.5021 23.4546C55.9046 23.4546 56.28 23.5033 56.6282 23.6008C56.9789 23.6962 57.2937 23.8372 57.5728 24.0239C57.8518 24.2085 58.0827 24.4345 58.2655 24.7021C58.3732 24.8585 58.4825 25.155 58.5542 25.3721Z" fill="url(#paint6_linear_507_90)"/>
<path d="M67.9367 30C67.8208 30 67.7269 29.9061 67.7269 29.7903V23.6643C67.7269 23.5485 67.8208 23.4546 67.9367 23.4546H68.6081C68.7239 23.4546 68.8178 23.5485 68.8178 23.6643V28.6994C68.8178 28.8152 68.9118 28.9091 69.0276 28.9091H74.0626C74.1785 28.9091 74.2724 29.003 74.2724 29.1189V29.7903C74.2724 29.9061 74.1785 30 74.0626 30H67.9367Z" fill="url(#paint7_linear_507_90)"/>
<path d="M88.6515 23.6643C88.6515 23.5485 88.7454 23.4546 88.8612 23.4546H89.6992C89.8151 23.4546 89.909 23.5485 89.909 23.6643V27.6893C89.909 28.1399 89.7724 28.5392 89.4993 28.8871C89.2261 29.2329 88.8421 29.5054 88.3472 29.7045C87.8523 29.9015 87.2722 30 86.607 30C85.9444 30 85.4202 29.9015 84.9253 29.7045C84.4304 29.5054 84.0464 29.2329 83.7732 28.8871C83.5001 28.5392 83.3635 28.1399 83.3635 27.6893V23.6643C83.3635 23.5485 83.4574 23.4546 83.5733 23.4546H84.4072C84.5231 23.4546 84.617 23.5485 84.617 23.6643V27.6107C84.617 27.9021 84.6995 28.1609 84.8644 28.3873C85.0321 28.6136 85.2142 28.7918 85.5198 28.9217C85.8254 29.0496 86.1878 29.1135 86.607 29.1135C87.0288 29.1135 87.3926 29.0496 87.6982 28.9217C88.0065 28.7918 88.2417 28.6136 88.404 28.3873C88.569 28.1609 88.6515 27.9021 88.6515 27.6107V23.6643Z" fill="url(#paint8_linear_507_90)"/>
<path d="M99.2098 30C99.0939 30 99 29.9061 99 29.7903V23.6643C99 23.5485 99.0939 23.4546 99.2098 23.4546H102.326C102.97 23.4546 103.504 23.5313 103.927 23.6847C104.35 23.836 104.666 24.0416 104.876 24.3015C105.086 24.5593 105.191 24.8502 105.191 25.174C105.191 25.4468 105.121 25.6769 104.982 25.8644C104.843 26.0498 104.657 26.1989 104.424 26.3118C104.193 26.4226 103.939 26.5036 103.661 26.5547V26.6187C103.962 26.6293 104.256 26.6996 104.543 26.8296C104.833 26.9574 105.072 27.1396 105.262 27.3761C105.451 27.6126 105.545 27.9003 105.545 28.239C105.545 28.5736 105.436 28.874 105.217 29.1403C105.001 29.4045 104.667 29.6144 104.215 29.7699C103.763 29.9233 103.185 30 102.481 30H99.2098ZM100.37 28.9433C100.37 29.0592 100.464 29.1531 100.58 29.1531H102.348C103.004 29.1531 103.475 29.0615 103.758 28.8782C104.042 28.695 104.184 28.466 104.184 28.1911C104.184 27.9844 104.112 27.7948 103.967 27.6222C103.822 27.4496 103.615 27.3122 103.346 27.2099C103.08 27.1076 102.763 27.0565 102.397 27.0565H100.58C100.464 27.0565 100.37 27.1504 100.37 27.2663V28.9433ZM100.37 26.0765C100.37 26.1924 100.464 26.2863 100.58 26.2863H102.206C102.514 26.2863 102.79 26.2437 103.035 26.1584C103.284 26.0732 103.48 25.9539 103.625 25.8005C103.773 25.6449 103.847 25.4617 103.847 25.2508C103.847 24.9802 103.715 24.7532 103.452 24.57C103.189 24.3868 102.786 24.2951 102.242 24.2951H100.58C100.464 24.2951 100.37 24.3891 100.37 24.5049V26.0765Z" fill="url(#paint9_linear_507_90)"/>
<defs>
<linearGradient id="paint0_linear_507_90" x1="77.4545" y1="6" x2="77.4545" y2="19.0909" gradientUnits="userSpaceOnUse">
<stop stop-color="white"/>
<stop offset="1" stop-color="#F5F5F5"/>
</linearGradient>
<linearGradient id="paint1_linear_507_90" x1="77.4545" y1="6" x2="77.4545" y2="19.0909" gradientUnits="userSpaceOnUse">
<stop stop-color="white"/>
<stop offset="1" stop-color="#F5F5F5"/>
</linearGradient>
<linearGradient id="paint2_linear_507_90" x1="77.4545" y1="6" x2="77.4545" y2="19.0909" gradientUnits="userSpaceOnUse">
<stop stop-color="white"/>
<stop offset="1" stop-color="#F5F5F5"/>
</linearGradient>
<linearGradient id="paint3_linear_507_90" x1="77.4545" y1="6" x2="77.4545" y2="19.0909" gradientUnits="userSpaceOnUse">
<stop stop-color="white"/>
<stop offset="1" stop-color="#F5F5F5"/>
</linearGradient>
<linearGradient id="paint4_linear_507_90" x1="77.4545" y1="6" x2="77.4545" y2="19.0909" gradientUnits="userSpaceOnUse">
<stop stop-color="white"/>
<stop offset="1" stop-color="#F5F5F5"/>
</linearGradient>
<linearGradient id="paint5_linear_507_90" x1="77.4545" y1="6" x2="77.4545" y2="19.0909" gradientUnits="userSpaceOnUse">
<stop stop-color="white"/>
<stop offset="1" stop-color="#F5F5F5"/>
</linearGradient>
<linearGradient id="paint6_linear_507_90" x1="55.3632" y1="23.4546" x2="55.3632" y2="30" gradientUnits="userSpaceOnUse">
<stop stop-color="white"/>
<stop offset="1" stop-color="#F5F5F5"/>
</linearGradient>
<linearGradient id="paint7_linear_507_90" x1="70.9997" y1="23.4546" x2="70.9997" y2="30" gradientUnits="userSpaceOnUse">
<stop stop-color="white"/>
<stop offset="1" stop-color="#F5F5F5"/>
</linearGradient>
<linearGradient id="paint8_linear_507_90" x1="86.6363" y1="23.4546" x2="86.6363" y2="30" gradientUnits="userSpaceOnUse">
<stop stop-color="white"/>
<stop offset="1" stop-color="#F5F5F5"/>
</linearGradient>
<linearGradient id="paint9_linear_507_90" x1="102.273" y1="23.4546" x2="102.273" y2="30" gradientUnits="userSpaceOnUse">
<stop stop-color="white"/>
<stop offset="1" stop-color="#F5F5F5"/>
</linearGradient>
<clipPath id="clip0_507_90">
<path d="M0 12.8C0 8.31958 0 6.07937 0.871948 4.36808C1.63893 2.86278 2.86278 1.63893 4.36808 0.871948C6.07937 0 8.31958 0 12.8 0H23.2C27.6804 0 29.9206 0 31.6319 0.871948C33.1372 1.63893 34.3611 2.86278 35.1281 4.36808C36 6.07937 36 8.31958 36 12.8V23.2C36 27.6804 36 29.9206 35.1281 31.6319C34.3611 33.1372 33.1372 34.3611 31.6319 35.1281C29.9206 36 27.6804 36 23.2 36H12.8C8.31958 36 6.07937 36 4.36808 35.1281C2.86278 34.3611 1.63893 33.1372 0.871948 31.6319C0 29.9206 0 27.6804 0 23.2V12.8Z" fill="white"/>
</clipPath>
</defs>
</svg>
