<svg width="36" height="36" viewBox="0 0 36 36" fill="none" xmlns="http://www.w3.org/2000/svg">
<g clip-path="url(#clip0_507_97)">
<path d="M0 12.8C0 8.31958 0 6.07937 0.871948 4.36808C1.63893 2.86278 2.86278 1.63893 4.36808 0.871948C6.07937 0 8.31958 0 12.8 0H23.2C27.6804 0 29.9206 0 31.6319 0.871948C33.1372 1.63893 34.3611 2.86278 35.1281 4.36808C36 6.07937 36 8.31958 36 12.8V23.2C36 27.6804 36 29.9206 35.1281 31.6319C34.3611 33.1372 33.1372 34.3611 31.6319 35.1281C29.9206 36 27.6804 36 23.2 36H12.8C8.31958 36 6.07937 36 4.36808 35.1281C2.86278 34.3611 1.63893 33.1372 0.871948 31.6319C0 29.9206 0 27.6804 0 23.2V12.8Z" fill="#98875A"/>
<path d="M6.00722 21.4089C6.04093 20.2358 5.94502 18.8105 6.05337 17.3886C6.33848 13.6464 9.34477 10.4853 12.9759 10.0705C13.7481 9.98235 14.518 10.0073 15.2893 10.0002C15.8382 9.99514 16.2074 10.2698 16.4673 10.7721C18.709 15.1074 20.9611 19.4366 23.2099 23.7676C23.4429 24.2166 23.6898 24.6589 23.9055 25.1167C24.1425 25.619 23.9215 25.9866 23.3804 25.9886C21.4851 25.996 19.5898 25.9862 17.6945 25.9983C17.4395 26 17.3364 25.8994 17.2618 25.6701C16.9993 24.8619 16.7128 24.0621 16.4506 23.2535C15.9285 21.6452 14.1992 21.1224 13.0375 22.2285C12.8421 22.4147 12.697 22.6311 12.6067 22.894C12.2964 23.7968 11.9599 24.6906 11.6676 25.5994C11.5658 25.9159 11.4126 26.0017 11.1042 25.999C9.54444 25.9842 7.98435 25.9829 6.42457 26C6.09789 26.0037 5.99674 25.9071 6.00067 25.5722C6.01605 24.2678 6.00722 22.9634 6.00722 21.4089Z" fill="white"/>
<path d="M29.9913 20.4345C29.9913 22.1259 29.9799 23.8173 29.9999 25.5084C30.0044 25.8924 29.8679 25.9653 29.4995 25.9905C28.721 26.044 28.2182 25.8907 27.8057 25.1049C26.0533 21.7667 24.2014 18.4784 22.3845 15.1722C21.646 13.8282 20.9099 12.4829 20.1628 11.1436C19.7965 10.4871 20.0611 10.0053 20.8283 10.0177C22.1926 10.0395 23.5607 9.92193 24.9213 10.1034C27.5765 10.4578 30.0468 12.9012 29.9916 15.8996C29.9637 17.4109 29.9868 18.9229 29.9868 20.4345C29.9878 20.4345 29.9896 20.4345 29.9913 20.4345Z" fill="white"/>
</g>
<defs>
<clipPath id="clip0_507_97">
<path d="M0 12.8C0 8.31958 0 6.07937 0.871948 4.36808C1.63893 2.86278 2.86278 1.63893 4.36808 0.871948C6.07937 0 8.31958 0 12.8 0H23.2C27.6804 0 29.9206 0 31.6319 0.871948C33.1372 1.63893 34.3611 2.86278 35.1281 4.36808C36 6.07937 36 8.31958 36 12.8V23.2C36 27.6804 36 29.9206 35.1281 31.6319C34.3611 33.1372 33.1372 34.3611 31.6319 35.1281C29.9206 36 27.6804 36 23.2 36H12.8C8.31958 36 6.07937 36 4.36808 35.1281C2.86278 34.3611 1.63893 33.1372 0.871948 31.6319C0 29.9206 0 27.6804 0 23.2V12.8Z" fill="white"/>
</clipPath>
</defs>
</svg>
