<svg width="102" height="36" viewBox="0 0 102 36" fill="none" xmlns="http://www.w3.org/2000/svg">
<path d="M10.0088 22.2621C10.05 20.7957 9.9328 19.0142 10.0652 17.2368C10.4137 12.5591 14.088 8.60758 18.5262 8.08919C19.4699 7.97894 20.4109 8.01008 21.3535 8.00125C22.0245 7.99493 22.4758 8.33829 22.7934 8.96608C25.5332 14.3852 28.2857 19.7968 31.0343 25.2105C31.3192 25.7718 31.6208 26.3247 31.8845 26.8969C32.1741 27.5247 31.9041 27.9842 31.2427 27.9867C28.9263 27.996 26.6098 27.9838 24.2933 27.9989C23.9817 28.001 23.8556 27.8752 23.7644 27.5887C23.4436 26.5784 23.0935 25.5786 22.773 24.5679C22.1349 22.5575 20.0213 21.904 18.6014 23.2867C18.3625 23.5194 18.1853 23.7899 18.0749 24.1186C17.6956 25.2471 17.2843 26.3642 16.927 27.5003C16.8026 27.8958 16.6154 28.0031 16.2385 27.9998C14.3321 27.9813 12.4253 27.9796 10.5189 28.001C10.1196 28.0057 9.99602 27.8849 10.0008 27.4662C10.0196 25.8357 10.0088 24.2052 10.0088 22.2621Z" fill="url(#paint0_linear_507_102)"/>
<path d="M37.9904 21.0442C37.9904 23.1584 37.9779 25.2727 37.9999 27.3865C38.0048 27.8665 37.8547 27.9577 37.4495 27.9892C36.5931 28.056 36.04 27.8644 35.5863 26.8821C33.6587 22.7094 31.6215 18.599 29.623 14.4662C28.8106 12.7863 28.0009 11.1046 27.1791 9.43051C26.7761 8.60984 27.0672 8.00757 27.9111 8.02311C29.4119 8.05041 30.9168 7.90341 32.4134 8.13021C35.3342 8.5733 38.0514 11.6275 37.9908 15.3755C37.9601 17.2646 37.9855 19.1546 37.9855 21.0442C37.9866 21.0442 37.9885 21.0442 37.9904 21.0442Z" fill="url(#paint1_linear_507_102)"/>
<path d="M53.1765 10.0343C53.1765 10.1328 53.0944 10.2114 52.996 10.2072L49.8202 10.0714C49.7219 10.0672 49.6398 10.1458 49.6398 10.2443V18.8281C49.6398 18.9237 49.5623 19.0012 49.4667 19.0012H47.7025C47.6069 19.0012 47.5294 18.9237 47.5294 18.8281V10.2443C47.5294 10.1458 47.4473 10.0672 47.349 10.0714L44.1805 10.2072C44.0821 10.2114 44 10.1328 44 10.0343L44 8.17421C44 8.07864 44.0775 8.00116 44.1731 8.00116L53.0034 8.00116C53.099 8.00116 53.1765 8.07864 53.1765 8.17421V10.0343Z" fill="url(#paint2_linear_507_102)"/>
<path d="M62.3953 18.8281C62.3953 18.9237 62.3178 19.0011 62.2222 19.0011H60.6766C60.581 19.0011 60.5035 18.9237 60.5035 18.8281V14.0374C60.5035 13.4782 60.3906 13.0612 60.1647 12.7862C59.9482 12.5112 59.6471 12.3737 59.2612 12.3737C59.0353 12.3737 58.7953 12.4378 58.5412 12.5662C58.2871 12.6945 58.0565 12.8732 57.8494 13.1024C57.6518 13.3224 57.5059 13.5791 57.4118 13.8724V18.8281C57.4118 18.9237 57.3343 19.0011 57.2387 19.0011H55.4672C55.3716 19.0011 55.2941 18.9237 55.2941 18.8281V8.17421C55.2941 8.07864 55.3716 8.00116 55.4672 8.00116L57.2387 8.00116C57.3343 8.00116 57.4118 8.07864 57.4118 8.17421V11.5798C57.4118 11.7557 57.6677 11.8346 57.7877 11.706C57.9987 11.4799 58.2451 11.2899 58.5271 11.1362C58.9976 10.8795 59.5106 10.7512 60.0659 10.7512C60.5459 10.7512 60.9365 10.8337 61.2376 10.9987C61.5388 11.1545 61.7741 11.3699 61.9435 11.6449C62.1129 11.9107 62.2306 12.2132 62.2965 12.5524C62.3624 12.8824 62.3953 13.2262 62.3953 13.5837V18.8281Z" fill="url(#paint3_linear_507_102)"/>
<path d="M69.4118 12.4699C68.8376 12.4699 68.1906 12.5799 67.7388 12.7999C67.287 13.0107 66.5882 13.5012 66.5882 13.8449C66.5882 14.1887 66.5882 19.0012 66.5882 19.0012H64.4706V10.7512H66.5882V11.7256C66.5882 11.9058 66.8571 11.9818 66.9714 11.8424C67.1632 11.6086 67.3793 11.4093 67.6117 11.2462C68.0164 10.962 68.4447 10.8062 68.8964 10.7787C69.0342 10.7703 69.2141 10.7787 69.2706 10.7787C69.3271 10.7787 69.3741 10.7832 69.4118 10.7924V12.4699Z" fill="url(#paint4_linear_507_102)"/>
<path d="M71.7025 19.0012C71.6069 19.0012 71.5294 18.9237 71.5294 18.8281V10.9242C71.5294 10.8286 71.6069 10.7512 71.7025 10.7512H73.474C73.5696 10.7512 73.6471 10.8286 73.6471 10.9242V18.8281C73.6471 18.9237 73.5696 19.0012 73.474 19.0012H71.7025ZM71.7025 10.0637C71.6069 10.0637 71.5294 9.98618 71.5294 9.8906V8.17421C71.5294 8.07864 71.6069 8.00116 71.7025 8.00116H73.474C73.5696 8.00116 73.6471 8.07864 73.6471 8.17421V9.8906C73.6471 9.98618 73.5696 10.0637 73.474 10.0637H71.7025Z" fill="url(#paint5_linear_507_102)"/>
<path d="M77.9878 19.0012C77.9137 19.0012 77.8478 18.954 77.8239 18.8838L75.1366 10.9799C75.0984 10.8677 75.1819 10.7512 75.3004 10.7512H77.0503C77.1255 10.7512 77.1921 10.7997 77.215 10.8713L78.7764 15.7376C78.8278 15.8978 79.0545 15.8978 79.106 15.7376L80.6673 10.8713C80.6903 10.7997 80.7569 10.7512 80.8321 10.7512H82.5814C82.7001 10.7512 82.7836 10.8679 82.7451 10.9802L80.04 18.8841C80.0161 18.9541 79.9503 19.0011 79.8763 19.0011L77.9878 19.0012Z" fill="url(#paint6_linear_507_102)"/>
<path d="M87.9514 19.0011C87.0386 19.0011 86.2502 18.8347 85.5863 18.5018C84.9264 18.1654 84.4186 17.6903 84.0629 17.0765C83.7072 16.4592 83.5294 15.7327 83.5294 14.897C83.5294 14.0751 83.7072 13.3538 84.0629 12.733C84.4225 12.1088 84.9244 11.6233 85.5685 11.2765C86.2127 10.9263 86.9694 10.7512 87.8388 10.7512C88.4 10.7512 88.9295 10.8309 89.4274 10.9904C89.9293 11.1465 90.3719 11.3892 90.7552 11.7187C91.1425 12.0481 91.4468 12.4677 91.6681 12.9775C91.8894 13.4838 92 14.0872 92 14.7877L91.9997 14.9956C91.9995 15.099 91.9134 15.1828 91.8072 15.1828H84.4879L84.5371 14.0959H89.704C89.8022 14.0959 89.8821 14.0178 89.8779 13.9222C89.8653 13.6314 89.8218 13.3685 89.6764 13.1336C89.5025 12.8492 89.2595 12.6255 88.9473 12.4625C88.639 12.2995 88.2794 12.2181 87.8684 12.2181C87.4298 12.2181 87.0445 12.3117 86.7126 12.4989C86.3806 12.6827 86.1218 12.9255 85.936 13.2272C85.7543 13.5254 85.6614 13.8531 85.6574 14.2103V15.136C85.6574 15.6007 85.7543 16.1818 85.9479 16.5147C86.1415 16.8441 86.4122 17.0973 86.76 17.2742C87.1077 17.4476 87.5148 17.5342 87.9811 17.5342C88.2933 17.5342 88.5758 17.4961 88.8287 17.4198C89.0816 17.34 89.301 17.2239 89.4867 17.0713C89.6418 16.9439 89.8137 16.7352 89.8663 16.4378C89.8843 16.3358 89.9685 16.2511 90.0749 16.2511H91.8071C91.9133 16.2511 92.0005 16.3353 91.9885 16.4381C91.9174 17.0521 91.5111 17.6041 91.1879 17.9192C90.8362 18.2625 90.3857 18.5295 89.8364 18.7202C89.2871 18.9075 88.6588 19.0011 87.9514 19.0011Z" fill="url(#paint7_linear_507_102)"/>
<path d="M52.3068 24.4499C52.3431 24.5587 52.2608 24.6678 52.1462 24.6678H51.6515C51.5842 24.6678 51.5231 24.6289 51.4933 24.5685C51.4423 24.4656 51.3611 24.3091 51.3021 24.2321C51.2096 24.1117 51.0965 24.0096 50.9625 23.9256C50.8286 23.8416 50.6786 23.7783 50.5126 23.7355C50.3485 23.6927 50.174 23.6713 49.9891 23.6713C49.6552 23.6713 49.3562 23.7418 49.0921 23.8828C48.8299 24.0238 48.6224 24.2306 48.4696 24.5031C48.3187 24.7756 48.2432 25.1083 48.2432 25.5012C48.2432 25.8972 48.3187 26.2315 48.4696 26.504C48.6224 26.7765 48.8308 26.9825 49.0949 27.1219C49.359 27.2613 49.6562 27.331 49.9863 27.331C50.1693 27.331 50.3428 27.3104 50.5069 27.2692C50.6729 27.2264 50.8229 27.1639 50.9569 27.0815C51.0908 26.9991 51.204 26.8985 51.2964 26.7797C51.3572 26.7021 51.4412 26.5398 51.4933 26.434C51.5231 26.3736 51.5843 26.3345 51.6517 26.3345H52.2015C52.297 26.3345 52.3766 26.4123 52.3648 26.5072C52.3311 26.7783 52.2146 26.8595 52.1 27.0292C51.9661 27.2288 51.7935 27.4015 51.5822 27.5473C51.3728 27.6914 51.1332 27.8031 50.8635 27.8823C50.5937 27.9616 50.2994 28.0012 49.9806 28.0012C49.4788 28.0012 49.0317 27.9013 48.6394 27.7017C48.247 27.5005 47.9376 27.213 47.7112 26.8391C47.4868 26.4652 47.3745 26.0192 47.3745 25.5012C47.3745 24.9815 47.4877 24.5355 47.7141 24.1632C47.9404 23.7893 48.2498 23.5026 48.6422 23.303C49.0346 23.1018 49.4807 23.0012 49.9806 23.0012C50.2881 23.0012 50.5749 23.0384 50.8408 23.1129C51.1087 23.1857 51.3492 23.2935 51.5624 23.436C51.7756 23.577 51.9519 23.7497 52.0915 23.9541C52.1712 24.0698 52.252 24.2857 52.3068 24.4499Z" fill="url(#paint8_linear_507_102)"/>
<path d="M60.3811 28.0012C60.2855 28.0012 60.208 27.9237 60.208 27.8281V23.1742C60.208 23.0786 60.2855 23.0012 60.3811 23.0012H60.8683C60.9639 23.0012 61.0413 23.0786 61.0413 23.1742V26.9948C61.0413 27.0903 61.1188 27.1678 61.2144 27.1678H65.035C65.1305 27.1678 65.208 27.2453 65.208 27.3409V27.8281C65.208 27.9237 65.1305 28.0012 65.035 28.0012H60.3811Z" fill="url(#paint9_linear_507_102)"/>
<path d="M77.081 23.1742C77.081 23.0786 77.1585 23.0012 77.2541 23.0012H77.8686C77.9641 23.0012 78.0416 23.0786 78.0416 23.1742V26.236C78.0416 26.5803 77.9373 26.8852 77.7287 27.151C77.52 27.4152 77.2267 27.6233 76.8486 27.7754C76.4706 27.9259 76.0274 28.0012 75.5192 28.0012C75.0131 28.0012 74.6127 27.9259 74.2346 27.7754C73.8566 27.6233 73.5632 27.4152 73.3546 27.151C73.146 26.8852 73.0416 26.5803 73.0416 26.236V23.1742C73.0416 23.0786 73.1191 23.0012 73.2147 23.0012H73.8261C73.9217 23.0012 73.9991 23.0786 73.9991 23.1742V26.176C73.9991 26.3985 74.0621 26.5963 74.1882 26.7692C74.3162 26.9421 74.4553 27.0782 74.6888 27.1774C74.9222 27.2751 75.199 27.3239 75.5192 27.3239C75.8415 27.3239 76.1194 27.2751 76.3528 27.1774C76.5883 27.0782 76.768 26.9421 76.892 26.7692C77.018 26.5963 77.081 26.3985 77.081 26.176V23.1742Z" fill="url(#paint10_linear_507_102)"/>
<path d="M86.0482 28.0012C85.9526 28.0012 85.8751 27.9237 85.8751 27.8281V23.1742C85.8751 23.0786 85.9526 23.0012 86.0482 23.0012H88.4158C88.9081 23.0012 89.3157 23.0598 89.6387 23.1769C89.9616 23.2925 90.2033 23.4496 90.3636 23.6481C90.5239 23.8451 90.6041 24.0672 90.6041 24.3146C90.6041 24.523 90.551 24.6988 90.4449 24.842C90.3388 24.9836 90.1965 25.0975 90.0181 25.1838C89.8419 25.2684 89.6477 25.3303 89.4354 25.3693V25.4182C89.6658 25.4263 89.8905 25.48 90.1095 25.5793C90.3309 25.6769 90.5138 25.8161 90.6583 25.9968C90.8029 26.1774 90.8751 26.3972 90.8751 26.6559C90.8751 26.9115 90.7916 27.141 90.6244 27.3444C90.4596 27.5462 90.2044 27.7066 89.8589 27.8254C89.5133 27.9426 89.0718 28.0012 88.5343 28.0012H86.0482ZM86.9219 27.1811C86.9219 27.2767 86.9993 27.3542 87.0949 27.3542H88.4327C88.9341 27.3542 89.2931 27.2842 89.5099 27.1442C89.7267 27.0043 89.8351 26.8293 89.8351 26.6193C89.8351 26.4614 89.7798 26.3166 89.6692 26.1848C89.5585 26.0529 89.4004 25.9479 89.1949 25.8698C88.9917 25.7917 88.75 25.7526 88.47 25.7526H87.0949C86.9993 25.7526 86.9219 25.8301 86.9219 25.9257V27.1811ZM86.9219 24.9912C86.9219 25.0868 86.9993 25.1642 87.0949 25.1642H88.3243C88.5592 25.1642 88.7703 25.1317 88.9578 25.0666C89.1475 25.0015 89.2977 24.9103 89.4083 24.7932C89.5212 24.6743 89.5777 24.5344 89.5777 24.3732C89.5777 24.1665 89.4772 23.9932 89.2762 23.8532C89.0752 23.7132 88.7669 23.6432 88.3514 23.6432H87.0949C86.9993 23.6432 86.9219 23.7207 86.9219 23.8163V24.9912Z" fill="url(#paint11_linear_507_102)"/>
<defs>
<linearGradient id="paint0_linear_507_102" x1="8.77778" y1="30.2234" x2="31.578" y2="3.33006" gradientUnits="userSpaceOnUse">
<stop stop-color="#796532"/>
<stop offset="0.0265" stop-color="#7E6A38"/>
<stop offset="0.1295" stop-color="#8E7B4C"/>
<stop offset="0.2373" stop-color="#99885C"/>
<stop offset="0.3521" stop-color="#A09066"/>
<stop offset="0.486" stop-color="#A39369"/>
<stop offset="0.6157" stop-color="#A09065"/>
<stop offset="0.7435" stop-color="#98875A"/>
<stop offset="0.8706" stop-color="#8B7848"/>
<stop offset="0.9966" stop-color="#7A6633"/>
<stop offset="1" stop-color="#796532"/>
</linearGradient>
<linearGradient id="paint1_linear_507_102" x1="26.3889" y1="30.2234" x2="46.6147" y2="18.295" gradientUnits="userSpaceOnUse">
<stop stop-color="#796532"/>
<stop offset="0.0265" stop-color="#7E6A38"/>
<stop offset="0.1295" stop-color="#8E7B4C"/>
<stop offset="0.2373" stop-color="#99885C"/>
<stop offset="0.3521" stop-color="#A09066"/>
<stop offset="0.486" stop-color="#A39369"/>
<stop offset="0.6157" stop-color="#A09065"/>
<stop offset="0.7435" stop-color="#98875A"/>
<stop offset="0.8706" stop-color="#8B7848"/>
<stop offset="0.9966" stop-color="#7A6633"/>
<stop offset="1" stop-color="#796532"/>
</linearGradient>
<linearGradient id="paint2_linear_507_102" x1="68" y1="8.00116" x2="68" y2="19.0012" gradientUnits="userSpaceOnUse">
<stop stop-color="white"/>
<stop offset="1" stop-color="#F5F5F5"/>
</linearGradient>
<linearGradient id="paint3_linear_507_102" x1="68" y1="8.00116" x2="68" y2="19.0012" gradientUnits="userSpaceOnUse">
<stop stop-color="white"/>
<stop offset="1" stop-color="#F5F5F5"/>
</linearGradient>
<linearGradient id="paint4_linear_507_102" x1="68" y1="8.00116" x2="68" y2="19.0012" gradientUnits="userSpaceOnUse">
<stop stop-color="white"/>
<stop offset="1" stop-color="#F5F5F5"/>
</linearGradient>
<linearGradient id="paint5_linear_507_102" x1="68" y1="8.00116" x2="68" y2="19.0012" gradientUnits="userSpaceOnUse">
<stop stop-color="white"/>
<stop offset="1" stop-color="#F5F5F5"/>
</linearGradient>
<linearGradient id="paint6_linear_507_102" x1="68" y1="8.00116" x2="68" y2="19.0012" gradientUnits="userSpaceOnUse">
<stop stop-color="white"/>
<stop offset="1" stop-color="#F5F5F5"/>
</linearGradient>
<linearGradient id="paint7_linear_507_102" x1="68" y1="8.00116" x2="68" y2="19.0012" gradientUnits="userSpaceOnUse">
<stop stop-color="white"/>
<stop offset="1" stop-color="#F5F5F5"/>
</linearGradient>
<linearGradient id="paint8_linear_507_102" x1="49.8745" y1="23.0012" x2="49.8745" y2="28.0012" gradientUnits="userSpaceOnUse">
<stop stop-color="white"/>
<stop offset="1" stop-color="#F5F5F5"/>
</linearGradient>
<linearGradient id="paint9_linear_507_102" x1="62.708" y1="23.0012" x2="62.708" y2="28.0012" gradientUnits="userSpaceOnUse">
<stop stop-color="white"/>
<stop offset="1" stop-color="#F5F5F5"/>
</linearGradient>
<linearGradient id="paint10_linear_507_102" x1="75.5416" y1="23.0012" x2="75.5416" y2="28.0012" gradientUnits="userSpaceOnUse">
<stop stop-color="white"/>
<stop offset="1" stop-color="#F5F5F5"/>
</linearGradient>
<linearGradient id="paint11_linear_507_102" x1="88.3751" y1="23.0012" x2="88.3751" y2="28.0012" gradientUnits="userSpaceOnUse">
<stop stop-color="white"/>
<stop offset="1" stop-color="#F5F5F5"/>
</linearGradient>
</defs>
</svg>
