<svg width="36" height="36" viewBox="0 0 36 36" fill="none" xmlns="http://www.w3.org/2000/svg">
<g clip-path="url(#clip0_507_98)">
<path d="M0 12.8C0 8.31958 0 6.07937 0.871948 4.36808C1.63893 2.86278 2.86278 1.63893 4.36808 0.871948C6.07937 0 8.31958 0 12.8 0H23.2C27.6804 0 29.9206 0 31.6319 0.871948C33.1372 1.63893 34.3611 2.86278 35.1281 4.36808C36 6.07937 36 8.31958 36 12.8V23.2C36 27.6804 36 29.9206 35.1281 31.6319C34.3611 33.1372 33.1372 34.3611 31.6319 35.1281C29.9206 36 27.6804 36 23.2 36H12.8C8.31958 36 6.07937 36 4.36808 35.1281C2.86278 34.3611 1.63893 33.1372 0.871948 31.6319C0 29.9206 0 27.6804 0 23.2V12.8Z" fill="#0D121C"/>
<path d="M6.00722 21.4087C6.04093 20.2356 5.94502 18.8103 6.05337 17.3885C6.33848 13.6463 9.34477 10.4851 12.9759 10.0704C13.7481 9.98217 14.518 10.0071 15.2893 10C15.8382 9.99496 16.2074 10.2696 16.4673 10.7719C18.709 15.1072 20.9611 19.4364 23.2099 23.7674C23.4429 24.2164 23.6898 24.6587 23.9055 25.1165C24.1425 25.6188 23.9215 25.9864 23.3804 25.9884C21.4851 25.9958 19.5898 25.986 17.6945 25.9982C17.4395 25.9998 17.3364 25.8992 17.2618 25.67C16.9993 24.8617 16.7128 24.0619 16.4506 23.2534C15.9285 21.645 14.1992 21.1222 13.0375 22.2284C12.8421 22.4145 12.697 22.631 12.6067 22.8939C12.2964 23.7967 11.9599 24.6904 11.6676 25.5993C11.5658 25.9157 11.4126 26.0015 11.1042 25.9988C9.54444 25.984 7.98435 25.9827 6.42457 25.9998C6.09789 26.0035 5.99674 25.9069 6.00067 25.572C6.01605 24.2676 6.00722 22.9632 6.00722 21.4087Z" fill="url(#paint0_linear_507_98)"/>
<path d="M29.9913 20.4343C29.9913 22.1257 29.9799 23.8171 29.9999 25.5082C30.0044 25.8922 29.8679 25.9652 29.4995 25.9904C28.721 26.0438 28.2182 25.8906 27.8057 25.1047C26.0533 21.7666 24.2014 18.4782 22.3845 15.172C21.646 13.828 20.9099 12.4827 20.1628 11.1434C19.7965 10.4869 20.0611 10.0051 20.8283 10.0175C22.1926 10.0393 23.5607 9.92174 24.9213 10.1032C27.5765 10.4577 30.0468 12.901 29.9916 15.8994C29.9637 17.4107 29.9868 18.9227 29.9868 20.4343H29.9913Z" fill="url(#paint1_linear_507_98)"/>
</g>
<defs>
<linearGradient id="paint0_linear_507_98" x1="5" y1="27.7777" x2="23.1688" y2="5.86022" gradientUnits="userSpaceOnUse">
<stop stop-color="#796532"/>
<stop offset="0.0265" stop-color="#7E6A38"/>
<stop offset="0.1295" stop-color="#8E7B4C"/>
<stop offset="0.2373" stop-color="#99885C"/>
<stop offset="0.3521" stop-color="#A09066"/>
<stop offset="0.486" stop-color="#A39369"/>
<stop offset="0.6157" stop-color="#A09065"/>
<stop offset="0.7435" stop-color="#98875A"/>
<stop offset="0.8706" stop-color="#8B7848"/>
<stop offset="0.9966" stop-color="#7A6633"/>
<stop offset="1" stop-color="#796532"/>
</linearGradient>
<linearGradient id="paint1_linear_507_98" x1="19.4444" y1="27.7777" x2="36.5459" y2="16.3166" gradientUnits="userSpaceOnUse">
<stop stop-color="#796532"/>
<stop offset="0.0265" stop-color="#7E6A38"/>
<stop offset="0.1295" stop-color="#8E7B4C"/>
<stop offset="0.2373" stop-color="#99885C"/>
<stop offset="0.3521" stop-color="#A09066"/>
<stop offset="0.486" stop-color="#A39369"/>
<stop offset="0.6157" stop-color="#A09065"/>
<stop offset="0.7435" stop-color="#98875A"/>
<stop offset="0.8706" stop-color="#8B7848"/>
<stop offset="0.9966" stop-color="#7A6633"/>
<stop offset="1" stop-color="#796532"/>
</linearGradient>
<clipPath id="clip0_507_98">
<path d="M0 12.8C0 8.31958 0 6.07937 0.871948 4.36808C1.63893 2.86278 2.86278 1.63893 4.36808 0.871948C6.07937 0 8.31958 0 12.8 0H23.2C27.6804 0 29.9206 0 31.6319 0.871948C33.1372 1.63893 34.3611 2.86278 35.1281 4.36808C36 6.07937 36 8.31958 36 12.8V23.2C36 27.6804 36 29.9206 35.1281 31.6319C34.3611 33.1372 33.1372 34.3611 31.6319 35.1281C29.9206 36 27.6804 36 23.2 36H12.8C8.31958 36 6.07937 36 4.36808 35.1281C2.86278 34.3611 1.63893 33.1372 0.871948 31.6319C0 29.9206 0 27.6804 0 23.2V12.8Z" fill="white"/>
</clipPath>
</defs>
</svg>
