<svg width="102" height="36" viewBox="0 0 102 36" fill="none" xmlns="http://www.w3.org/2000/svg">
<path d="M10.0088 22.2619C10.05 20.7955 9.9328 19.014 10.0652 17.2366C10.4137 12.5589 14.088 8.6074 18.5262 8.089C19.4699 7.97876 20.4109 8.0099 21.3535 8.00106C22.0245 7.99475 22.4758 8.3381 22.7934 8.9659C25.5332 14.385 28.2857 19.7966 31.0343 25.2103C31.3192 25.7716 31.6208 26.3245 31.8845 26.8967C32.1741 27.5245 31.9041 27.984 31.2427 27.9865C28.9263 27.9958 26.6098 27.9836 24.2933 27.9987C23.9817 28.0009 23.8556 27.875 23.7644 27.5885C23.4436 26.5782 23.0935 25.5785 22.773 24.5678C22.1349 22.5573 20.0213 21.9038 18.6014 23.2865C18.3625 23.5192 18.1853 23.7897 18.0749 24.1184C17.6956 25.2469 17.2843 26.364 16.927 27.5001C16.8026 27.8957 16.6154 28.003 16.2385 27.9996C14.3321 27.9811 12.4253 27.9794 10.5189 28.0009C10.1196 28.0055 9.99602 27.8847 10.0008 27.466C10.0196 25.8355 10.0088 24.2051 10.0088 22.2619Z" fill="url(#paint0_linear_1565_5973)"/>
<path d="M37.9904 21.044C37.9904 23.1582 37.9779 25.2725 37.9999 27.3863C38.0048 27.8664 37.8547 27.9575 37.4495 27.989C36.5931 28.0558 36.04 27.8643 35.5863 26.8819C33.6587 22.7093 31.6215 18.5988 29.623 14.466C28.8106 12.7861 28.0009 11.1044 27.1791 9.43033C26.7761 8.60966 27.0672 8.00739 27.9111 8.02293C29.4119 8.05023 30.9168 7.90323 32.4134 8.13003C35.3342 8.57312 38.0514 11.6273 37.9908 15.3753C37.9601 17.2645 37.9855 19.1544 37.9855 21.044C37.9866 21.044 37.9885 21.044 37.9904 21.044Z" fill="url(#paint1_linear_1565_5973)"/>
<path d="M53.1765 10.0341C53.1765 10.1326 53.0944 10.2112 52.996 10.207L49.8202 10.0712C49.7219 10.067 49.6398 10.1456 49.6398 10.2441V18.8279C49.6398 18.9235 49.5623 19.001 49.4667 19.001H47.7025C47.6069 19.001 47.5294 18.9235 47.5294 18.8279V10.2441C47.5294 10.1456 47.4473 10.067 47.349 10.0712L44.1805 10.207C44.0821 10.2112 44 10.1326 44 10.0341L44 8.17403C44 8.07845 44.0775 8.00098 44.1731 8.00098L53.0034 8.00098C53.099 8.00098 53.1765 8.07845 53.1765 8.17403V10.0341Z" fill="url(#paint2_linear_1565_5973)"/>
<path d="M62.3953 18.8279C62.3953 18.9235 62.3178 19.001 62.2222 19.001H60.6766C60.581 19.001 60.5035 18.9235 60.5035 18.8279V14.0372C60.5035 13.4781 60.3906 13.061 60.1647 12.786C59.9482 12.511 59.6471 12.3735 59.2612 12.3735C59.0353 12.3735 58.7953 12.4376 58.5412 12.566C58.2871 12.6943 58.0565 12.8731 57.8494 13.1022C57.6518 13.3222 57.5059 13.5789 57.4118 13.8722V18.8279C57.4118 18.9235 57.3343 19.001 57.2387 19.001H55.4672C55.3716 19.001 55.2941 18.9235 55.2941 18.8279V8.17403C55.2941 8.07845 55.3716 8.00098 55.4672 8.00098L57.2387 8.00098C57.3343 8.00098 57.4118 8.07845 57.4118 8.17403V11.5797C57.4118 11.7555 57.6677 11.8344 57.7877 11.7059C57.9987 11.4797 58.2451 11.2897 58.5271 11.136C58.9976 10.8793 59.5106 10.751 60.0659 10.751C60.5459 10.751 60.9365 10.8335 61.2376 10.9985C61.5388 11.1543 61.7741 11.3697 61.9435 11.6447C62.1129 11.9106 62.2306 12.2131 62.2965 12.5522C62.3624 12.8822 62.3953 13.226 62.3953 13.5835V18.8279Z" fill="url(#paint3_linear_1565_5973)"/>
<path d="M69.4118 12.4697C68.8376 12.4697 68.1906 12.5797 67.7388 12.7997C67.287 13.0106 66.5882 13.501 66.5882 13.8447C66.5882 14.1885 66.5882 19.001 66.5882 19.001H64.4706V10.751H66.5882V11.7254C66.5882 11.9056 66.8571 11.9816 66.9714 11.8422C67.1632 11.6084 67.3793 11.4092 67.6117 11.246C68.0164 10.9618 68.4447 10.806 68.8964 10.7785C69.0342 10.7701 69.2141 10.7785 69.2706 10.7785C69.3271 10.7785 69.3741 10.7831 69.4118 10.7922V12.4697Z" fill="url(#paint4_linear_1565_5973)"/>
<path d="M71.7025 19.001C71.6069 19.001 71.5294 18.9235 71.5294 18.8279V10.924C71.5294 10.8285 71.6069 10.751 71.7025 10.751H73.474C73.5696 10.751 73.6471 10.8285 73.6471 10.924V18.8279C73.6471 18.9235 73.5696 19.001 73.474 19.001H71.7025ZM71.7025 10.0635C71.6069 10.0635 71.5294 9.986 71.5294 9.89042V8.17403C71.5294 8.07845 71.6069 8.00098 71.7025 8.00098H73.474C73.5696 8.00098 73.6471 8.07845 73.6471 8.17403V9.89042C73.6471 9.986 73.5696 10.0635 73.474 10.0635H71.7025Z" fill="url(#paint5_linear_1565_5973)"/>
<path d="M77.9878 19.001C77.9137 19.001 77.8478 18.9538 77.8239 18.8836L75.1366 10.9797C75.0984 10.8675 75.1819 10.751 75.3004 10.751H77.0503C77.1255 10.751 77.1921 10.7995 77.215 10.8712L78.7764 15.7374C78.8278 15.8977 79.0545 15.8976 79.106 15.7374L80.6673 10.8712C80.6903 10.7995 80.7569 10.751 80.8321 10.751H82.5814C82.7001 10.751 82.7836 10.8678 82.7451 10.9801L80.04 18.8839C80.0161 18.9539 79.9503 19.001 79.8763 19.001L77.9878 19.001Z" fill="url(#paint6_linear_1565_5973)"/>
<path d="M87.9514 19.001C87.0386 19.001 86.2502 18.8345 85.5863 18.5016C84.9264 18.1652 84.4186 17.6901 84.0629 17.0763C83.7072 16.459 83.5294 15.7325 83.5294 14.8968C83.5294 14.0749 83.7072 13.3536 84.0629 12.7328C84.4225 12.1086 84.9244 11.6231 85.5685 11.2763C86.2127 10.9261 86.9694 10.751 87.8388 10.751C88.4 10.751 88.9295 10.8307 89.4274 10.9903C89.9293 11.1463 90.3719 11.3891 90.7552 11.7185C91.1425 12.0479 91.4468 12.4676 91.6681 12.9773C91.8894 13.4836 92 14.087 92 14.7875L91.9997 14.9954C91.9995 15.0988 91.9134 15.1826 91.8072 15.1826H84.4879L84.5371 14.0957H89.704C89.8022 14.0957 89.8821 14.0176 89.8779 13.922C89.8653 13.6312 89.8218 13.3684 89.6764 13.1334C89.5025 12.849 89.2595 12.6253 88.9473 12.4624C88.639 12.2994 88.2794 12.2179 87.8684 12.2179C87.4298 12.2179 87.0445 12.3115 86.7126 12.4988C86.3806 12.6826 86.1218 12.9253 85.936 13.227C85.7543 13.5252 85.6614 13.853 85.6574 14.2101V15.1358C85.6574 15.6005 85.7543 16.1816 85.9479 16.5145C86.1415 16.844 86.4122 17.0971 86.76 17.274C87.1077 17.4474 87.5148 17.5341 87.9811 17.5341C88.2933 17.5341 88.5758 17.4959 88.8287 17.4196C89.0816 17.3399 89.301 17.2237 89.4867 17.0711C89.6418 16.9437 89.8137 16.735 89.8663 16.4376C89.8843 16.3356 89.9685 16.251 90.0749 16.251H91.8071C91.9133 16.251 92.0005 16.3351 91.9885 16.4379C91.9174 17.0519 91.5111 17.6039 91.1879 17.919C90.8362 18.2623 90.3857 18.5293 89.8364 18.7201C89.2871 18.9073 88.6588 19.001 87.9514 19.001Z" fill="url(#paint7_linear_1565_5973)"/>
<path d="M52.3073 24.4497C52.3436 24.5585 52.2613 24.6676 52.1467 24.6676H51.652C51.5847 24.6676 51.5236 24.6287 51.4938 24.5684C51.4428 24.4654 51.3616 24.3089 51.3026 24.232C51.2101 24.1116 51.0969 24.0094 50.963 23.9254C50.8291 23.8414 50.6791 23.7781 50.5131 23.7353C50.349 23.6925 50.1745 23.6711 49.9896 23.6711C49.6557 23.6711 49.3567 23.7416 49.0926 23.8826C48.8304 24.0236 48.6229 24.2304 48.4701 24.5029C48.3192 24.7754 48.2437 25.1081 48.2437 25.501C48.2437 25.897 48.3192 26.2313 48.4701 26.5038C48.6229 26.7763 48.8313 26.9823 49.0954 27.1217C49.3595 27.2611 49.6566 27.3308 49.9868 27.3308C50.1698 27.3308 50.3433 27.3102 50.5074 27.269C50.6734 27.2263 50.8234 27.1637 50.9573 27.0813C51.0913 26.9989 51.2045 26.8983 51.2969 26.7795C51.3577 26.7019 51.4417 26.5396 51.4938 26.4339C51.5236 26.3734 51.5848 26.3343 51.6522 26.3343H52.2019C52.2975 26.3343 52.3771 26.4122 52.3653 26.507C52.3316 26.7781 52.2151 26.8594 52.1005 27.029C51.9666 27.2286 51.794 27.4013 51.5827 27.5471C51.3733 27.6912 51.1337 27.8029 50.864 27.8822C50.5942 27.9614 50.2999 28.001 49.9811 28.001C49.4793 28.001 49.0322 27.9012 48.6399 27.7015C48.2475 27.5003 47.9381 27.2128 47.7117 26.8389C47.4872 26.465 47.375 26.019 47.375 25.501C47.375 24.9813 47.4882 24.5354 47.7146 24.163C47.9409 23.7892 48.2503 23.5024 48.6427 23.3028C49.0351 23.1016 49.4812 23.001 49.9811 23.001C50.2886 23.001 50.5753 23.0382 50.8413 23.1127C51.1092 23.1855 51.3497 23.2933 51.5629 23.4359C51.7761 23.5769 51.9524 23.7496 52.092 23.9539C52.1717 24.0696 52.2525 24.2856 52.3073 24.4497Z" fill="url(#paint8_linear_1565_5973)"/>
<path d="M60.382 28.001C60.2865 28.001 60.209 27.9235 60.209 27.8279V23.174C60.209 23.0785 60.2865 23.001 60.382 23.001H60.8693C60.9648 23.001 61.0423 23.0785 61.0423 23.174V26.9946C61.0423 27.0902 61.1198 27.1676 61.2154 27.1676H65.0359C65.1315 27.1676 65.209 27.2451 65.209 27.3407V27.8279C65.209 27.9235 65.1315 28.001 65.0359 28.001H60.382Z" fill="url(#paint9_linear_1565_5973)"/>
<path d="M77.0804 23.174C77.0804 23.0785 77.1579 23.001 77.2535 23.001H77.868C77.9635 23.001 78.041 23.0785 78.041 23.174V26.2358C78.041 26.5801 77.9367 26.8851 77.728 27.1508C77.5194 27.415 77.226 27.6231 76.848 27.7752C76.47 27.9257 76.0268 28.001 75.5186 28.001C75.0125 28.001 74.6121 27.9257 74.234 27.7752C73.856 27.6231 73.5626 27.415 73.354 27.1508C73.1453 26.8851 73.041 26.5801 73.041 26.2358V23.174C73.041 23.0785 73.1185 23.001 73.2141 23.001H73.8255C73.921 23.001 73.9985 23.0785 73.9985 23.174V26.1758C73.9985 26.3984 74.0615 26.5961 74.1876 26.769C74.3156 26.9419 74.4547 27.078 74.6882 27.1772C74.9216 27.2749 75.1984 27.3237 75.5186 27.3237C75.8409 27.3237 76.1188 27.2749 76.3522 27.1772C76.5877 27.078 76.7674 26.9419 76.8914 26.769C77.0174 26.5961 77.0804 26.3984 77.0804 26.1758V23.174Z" fill="url(#paint10_linear_1565_5973)"/>
<path d="M86.0481 28.001C85.9525 28.001 85.875 27.9235 85.875 27.8279V23.174C85.875 23.0785 85.9525 23.001 86.0481 23.001H88.4157C88.908 23.001 89.3156 23.0596 89.6386 23.1768C89.9615 23.2923 90.2031 23.4494 90.3635 23.6479C90.5238 23.8449 90.604 24.0671 90.604 24.3145C90.604 24.5228 90.5509 24.6986 90.4448 24.8418C90.3386 24.9834 90.1964 25.0973 90.018 25.1836C89.8418 25.2682 89.6476 25.3301 89.4353 25.3691V25.418C89.6657 25.4261 89.8904 25.4798 90.1094 25.5791C90.3307 25.6768 90.5137 25.8159 90.6582 25.9966C90.8027 26.1772 90.875 26.397 90.875 26.6558C90.875 26.9113 90.7914 27.1408 90.6243 27.3442C90.4595 27.5461 90.2043 27.7064 89.8587 27.8252C89.5132 27.9424 89.0717 28.001 88.5342 28.001H86.0481ZM86.9217 27.181C86.9217 27.2765 86.9992 27.354 87.0948 27.354H88.4326C88.9339 27.354 89.293 27.284 89.5098 27.144C89.7266 27.0041 89.835 26.8291 89.835 26.6191C89.835 26.4613 89.7797 26.3164 89.669 26.1846C89.5584 26.0527 89.4003 25.9478 89.1948 25.8696C88.9915 25.7915 88.7499 25.7524 88.4699 25.7524H87.0948C86.9992 25.7524 86.9217 25.8299 86.9217 25.9255V27.181ZM86.9217 24.991C86.9217 25.0866 86.9992 25.1641 87.0948 25.1641H88.3242C88.5591 25.1641 88.7702 25.1315 88.9577 25.0664C89.1474 25.0013 89.2975 24.9102 89.4082 24.793C89.5211 24.6742 89.5776 24.5342 89.5776 24.373C89.5776 24.1663 89.4771 23.993 89.2761 23.853C89.0751 23.7131 88.7668 23.6431 88.3513 23.6431H87.0948C86.9992 23.6431 86.9217 23.7205 86.9217 23.8161V24.991Z" fill="url(#paint11_linear_1565_5973)"/>
<defs>
<linearGradient id="paint0_linear_1565_5973" x1="8.77778" y1="30.2232" x2="31.578" y2="3.32988" gradientUnits="userSpaceOnUse">
<stop stop-color="#796532"/>
<stop offset="0.0265" stop-color="#7E6A38"/>
<stop offset="0.1295" stop-color="#8E7B4C"/>
<stop offset="0.2373" stop-color="#99885C"/>
<stop offset="0.3521" stop-color="#A09066"/>
<stop offset="0.486" stop-color="#A39369"/>
<stop offset="0.6157" stop-color="#A09065"/>
<stop offset="0.7435" stop-color="#98875A"/>
<stop offset="0.8706" stop-color="#8B7848"/>
<stop offset="0.9966" stop-color="#7A6633"/>
<stop offset="1" stop-color="#796532"/>
</linearGradient>
<linearGradient id="paint1_linear_1565_5973" x1="26.3889" y1="30.2232" x2="46.6147" y2="18.2948" gradientUnits="userSpaceOnUse">
<stop stop-color="#796532"/>
<stop offset="0.0265" stop-color="#7E6A38"/>
<stop offset="0.1295" stop-color="#8E7B4C"/>
<stop offset="0.2373" stop-color="#99885C"/>
<stop offset="0.3521" stop-color="#A09066"/>
<stop offset="0.486" stop-color="#A39369"/>
<stop offset="0.6157" stop-color="#A09065"/>
<stop offset="0.7435" stop-color="#98875A"/>
<stop offset="0.8706" stop-color="#8B7848"/>
<stop offset="0.9966" stop-color="#7A6633"/>
<stop offset="1" stop-color="#796532"/>
</linearGradient>
<linearGradient id="paint2_linear_1565_5973" x1="68" y1="8.00098" x2="68" y2="19.001" gradientUnits="userSpaceOnUse">
<stop stop-color="white"/>
<stop offset="1" stop-color="#F5F5F5"/>
</linearGradient>
<linearGradient id="paint3_linear_1565_5973" x1="68" y1="8.00098" x2="68" y2="19.001" gradientUnits="userSpaceOnUse">
<stop stop-color="white"/>
<stop offset="1" stop-color="#F5F5F5"/>
</linearGradient>
<linearGradient id="paint4_linear_1565_5973" x1="68" y1="8.00098" x2="68" y2="19.001" gradientUnits="userSpaceOnUse">
<stop stop-color="white"/>
<stop offset="1" stop-color="#F5F5F5"/>
</linearGradient>
<linearGradient id="paint5_linear_1565_5973" x1="68" y1="8.00098" x2="68" y2="19.001" gradientUnits="userSpaceOnUse">
<stop stop-color="white"/>
<stop offset="1" stop-color="#F5F5F5"/>
</linearGradient>
<linearGradient id="paint6_linear_1565_5973" x1="68" y1="8.00098" x2="68" y2="19.001" gradientUnits="userSpaceOnUse">
<stop stop-color="white"/>
<stop offset="1" stop-color="#F5F5F5"/>
</linearGradient>
<linearGradient id="paint7_linear_1565_5973" x1="68" y1="8.00098" x2="68" y2="19.001" gradientUnits="userSpaceOnUse">
<stop stop-color="white"/>
<stop offset="1" stop-color="#F5F5F5"/>
</linearGradient>
<linearGradient id="paint8_linear_1565_5973" x1="49.875" y1="23.001" x2="49.875" y2="28.001" gradientUnits="userSpaceOnUse">
<stop stop-color="white"/>
<stop offset="1" stop-color="#F5F5F5"/>
</linearGradient>
<linearGradient id="paint9_linear_1565_5973" x1="62.709" y1="23.001" x2="62.709" y2="28.001" gradientUnits="userSpaceOnUse">
<stop stop-color="white"/>
<stop offset="1" stop-color="#F5F5F5"/>
</linearGradient>
<linearGradient id="paint10_linear_1565_5973" x1="75.541" y1="23.001" x2="75.541" y2="28.001" gradientUnits="userSpaceOnUse">
<stop stop-color="white"/>
<stop offset="1" stop-color="#F5F5F5"/>
</linearGradient>
<linearGradient id="paint11_linear_1565_5973" x1="88.375" y1="23.001" x2="88.375" y2="28.001" gradientUnits="userSpaceOnUse">
<stop stop-color="white"/>
<stop offset="1" stop-color="#F5F5F5"/>
</linearGradient>
</defs>
</svg>
